<?xml version="1.0" encoding="utf-8"?>
<!-- Generator: Adobe Illustrator 17.0.0, SVG Export Plug-In . SVG Version: 6.00 Build 0)  -->
<!DOCTYPE svg PUBLIC "-//W3C//DTD SVG 1.1//EN" "http://www.w3.org/Graphics/SVG/1.1/DTD/svg11.dtd">
<svg version="1.1" xmlns="http://www.w3.org/2000/svg" xmlns:xlink="http://www.w3.org/1999/xlink" x="0px" y="0px"
	 width="492.667px" height="454.057px" viewBox="0 0 492.667 454.057" enable-background="new 0 0 492.667 454.057"
	 xml:space="preserve">
<g id="Layer_2" display="none">
	
		<rect x="-363.883" y="-143.993" display="inline" fill-rule="evenodd" clip-rule="evenodd" fill="#B6B8BA" width="1238.938" height="914.954"/>
</g>
<g id="Layer_1">
	<path fill-rule="evenodd" clip-rule="evenodd" fill="#030303" d="M180.602,97.069c-1.444-7.697,2.138-32.226,11.755-41.998
		c5.272-5.62,13.128-7.49,19.694-5.753c1.595,0.422,4.282,1.548,5.573,2.723l1.065,1.547c4.354,2.533,6.835,12.949,5.639,19.009
		c-0.446,2.259-1.699,5.103-1.892,6.953c4.732,3.401,5.064-2.924,13.309-6.247c13.331-5.374,23.279,4.048,24,12.21
		c1.257,14.253-25.611,25.6-34.934,29.468c-6.791,2.817-17.861,6.001-23.644,11.394c-1.455,0.626-3.051,2.29-3.453,3.707
		c0.101,1.234,2.153,2.03,3.655,1.331c1.421-0.662,2.264-3.215,21.716-11.511c9.023-3.848,20.246-8.357,29.072-14.79
		c11.198-8.161,17.242-19.296,8.854-29.363c-7.207-8.649-18.043-9.602-27.401-5.704c-1.424,0.593-2.63,1.33-3.849,1.639
		c-0.458-4.45,1.076-8.264-3.296-16.317c-6.7-12.341-22.777-13.859-34.434-4.219c-3.856,3.188-4.26,11.928-6.206,17.57
		C181.519,81.201,178.346,87.673,180.602,97.069"/>
	<path fill-rule="evenodd" clip-rule="evenodd" d="M205.807,123.86c-0.03,0.449,0.152,2.288,0.4,2.667
		c0.195,0.296,0.401,0.338,0.724,0.747c0.193,0.244,0.735-1.416,0.917-1.168c1.312,0.04,1.514-0.746,2.573-0.056
		c0.442-0.453,2.026-1.288,2.818-1.72c2.088-1.142,3.741-0.795,4.743-1.326c1.188-0.513,4.845-0.51,6.681-0.295
		c1.755,0.206,4.477,0.72,6.821,1.073c1.989,0.3,6.503,5.726,7.548,7.685c-0.154-0.175-0.008,1.444,1.876,1.157l0.682-1.38
		c0.139-2.288-5.421-7.525-5.508-7.795c-3.88-1.464-3.224-3.139-5.004-1.731l-0.517-0.754c-0.115-1.386-11.78-1.789-15.198-0.551
		C213.03,121.256,206.057,123.336,205.807,123.86z M232.262,147.676c-0.597,0.657-6.309,4.076-7.968,5.236l-1.351,1.151
		c-0.428,0.126-1.083-0.227-2.303,0.746c-1.658,2.042-3.599-0.912-3.244,2.993c0.251,0.164,0.298,0.132,0.574,0.297
		c0.293,0.176,0.398,0.28,0.616,0.415c7.481-0.477,10.646-6.041,16.283-9.701c1.464-0.951,0.788-0.839,1.818-1.807
		c1.023-2.113,4.709-6.424,3.44-6.673c0.017-0.072,0.076-0.078,0.11-0.119c-1.253-0.251-1.041-0.594-1.059-1.03
		c-0.427-0.005-1.996,3.752-3.377,4.809C235.709,144.064,232.463,147.469,232.262,147.676z M216.894,164.024
		c-0.048,2.155,5.395,16.522,6.08,22.052l1.501,5.538c0.19,1.136,0.293,1.787,0.537,2.868c0.348,0.185,3.806,22.643,6.956,28.155
		c1.675,2.931,1.033,3.721,2.304,5.524c0.246,0.35,8.984,22.368,10.025,25.021c0.271,0.692,0.464,0.488,0.698,1.318
		c2.029,7.181,5.688,5.418,3.111-1.623c-0.992-2.709-5.35-18.721-6.028-22.229c-2.146-2.826-0.905-2.048-1.683-4.11
		c-2.238-6.045-1.24-2.561-2.1-4.069c-0.324-0.445-0.227-1.217-0.612-2.048c-2.602-6.39-9.597-26.531-11.43-33.732l-6.948-24.067
		l-0.907-0.343c-0.543,0.273-0.443,0.487-1.644,0.411L216.894,164.024z M157.499,182.985c-0.604,2.142-0.638,8.118,0.172,9.882
		c3.898,8.489-1.272-0.31,3.514,5.549c5.823,4.982,40.87,20.631,41.023,22.459c5.33,2.673,7.501,2.505,7.351-0.873
		c0.098-2.196-1.426-2.055-1.69-2.145c-2.951-1.269-44.023-29.262-44.671-29.888c-0.887-0.858-2.633-0.048-1.09-6.015
		c1.1-4.253,8.837-28.022,6.712-29.826c-0.266-0.667-2.101-2.761-2.19-1.783C166.488,151.926,158.813,178.318,157.499,182.985z
		 M239.361,266.916c-0.127,0.481,0.341,4.616,0.349,5.874l-0.823,36.759c-1.289-6.459-1.33-12.688-2.424-18.267
		c-0.202-1.03-0.074-2.205-0.318-3.151c-1.556-6.044-0.25-19.654-1.007-24.944c-0.332-2.325,1.052-3.251-0.594-5.782
		c-3.258-0.107-2.382,3.862-2.698,9.002c-0.085,1.386,0.452,2.29,0.402,3.262c-0.145,2.785-0.615,3.613-0.462,7.047
		c0.39,8.712,0.543,11.904,0.51,13.387c-0.042,1.922,0.736,8.919,0.632,9.81l1.506,34.874c0.079,1.361,0.356,3.392,0.418,4.766
		c0.2,5.795,0.491,19.155,1.724,24.454c0.192,0.785,0.037,1.329,0.123,2.102c0.092,0.818,0.367,0.827,0.385,2.089
		c0.051,3.494,0.71,2.91,0.687,4.031c2.102,1.568,0.793,2.805,1.487,4.48c0.153,0.37,0.771,1.149,1.022,2.661
		c0.463,2.782-0.304,6.299,3.722,5.73l-1.743-24.528c-0.194-3.718-2.711-21.171-1.594-24.18c1.175,0.471-0.088,0.316,1.045,3.011
		c1.343,3.193,0.498,4.474,1.91,7.751c0.891,2.068,0.388,5.05,3.83,5.1c1.654-4.238-1.506-11.243-2.447-14.665
		c-3.813-13.872-2.942-35.818-2.775-50.584c0.016-1.436-0.02-0.27,0.237-0.981c0.547-1.511-0.449-1.308,0.269-1.977
		c-0.249-2.791-0.177-5.772-0.247-8.575c-0.094-3.679,0.54-3.242-0.069-5.943l1.215-12.984c-0.227-1.36-1.254-1.272-2.246-1.771
		C241.271,254.913,241.043,260.526,239.361,266.916z"/>
	<path fill-rule="evenodd" clip-rule="evenodd" fill="#FFFFFF" d="M161.815,97.478l-1.035,1.604
		c-1.562,3.227,3.908,3.442,4.237,3.53c2.085,0.552,2.017,1.711,4.235,1.828c3.112,0.166,1.56-1.284,3.186-2.467
		C169.748,93.369,165.182,97.939,161.815,97.478z"/>
	<path fill="none" stroke="#FFFFFF" stroke-width="0.216" stroke-miterlimit="22.9256" d="M162.479,97.3l-0.915,1.298
		c-1.38,2.612,3.455,2.786,3.745,2.857c1.843,0.447,1.783,1.385,3.743,1.479c2.751,0.134,1.379-1.039,2.816-1.996
		C169.492,93.975,165.455,97.673,162.479,97.3z"/>
	<g>
		<path fill="none" d="M54.031,124.802c0.304-0.156,0.595-0.311,0.875-0.467C54.625,124.49,54.335,124.646,54.031,124.802z"/>
		<path fill="none" d="M37.304,135.832c-0.494,0.471-1.024,0.936-1.616,1.393c-0.657,0.508-0.896,0.445-0.997,0.518
			c0.101-0.072,0.34-0.01,0.996-0.517C36.28,136.768,36.81,136.303,37.304,135.832z"/>
		<path fill="none" d="M51.174,135.478c6.496-2.806,4.394,0.169,6.776-0.748c3.075-1.182,1.924-3.099,4.271-5.458
			c-0.248,0.084-0.516,0.179-0.834,0.302C59.006,130.491,57.673,132.667,51.174,135.478z"/>
		<path fill="none" d="M69.516,126.499c-0.865,0.459-1.557,0.812-2.141,1.098c1.279,0.467,2.845,1.009,4.481,0.261l5.283-4.496
			l-1.845,1.059C72.447,125.722,70.794,125.821,69.516,126.499z"/>
		<path fill="none" d="M158.895,85.667l-0.26-0.262c0.137,0.256,0.286,0.492,0.467,0.714
			C159.033,85.974,158.965,85.825,158.895,85.667z"/>
		<path fill="none" d="M43.095,130.268c0.795-0.369,0.878-0.362,0.923-0.405C43.973,129.905,43.888,129.9,43.095,130.268
			c-0.095,0.044-0.212,0.075-0.308,0.122l-1.048,0.799l1.048-0.799C42.882,130.343,43,130.312,43.095,130.268z"/>
		<path fill="none" d="M165.284,102.017c1.882,0.543,1.821,1.112,3.823,1.227c1.177,0.068,2.292,0.121,2.398-0.099
			c0.759-1.59,0.545-2.458-0.236-4.021c-2.501-5.003-6.198-1.754-8.875-2.153l-0.935,1.576
			C160.049,101.72,164.987,101.931,165.284,102.017z"/>
		<path fill="none" d="M94.186,94.082c0.008-0.009,0.013-0.014,0.02-0.023C94.199,94.068,94.194,94.074,94.186,94.082z"/>
		<path fill="none" d="M66.994,111.319c0.122-0.139,0.234-0.265,0.339-0.382C67.228,111.055,67.116,111.181,66.994,111.319z"/>
		<path fill="none" d="M95.651,92.539c0.105-0.09,0.214-0.181,0.35-0.297C95.864,92.358,95.755,92.448,95.651,92.539z"/>
		<path fill="none" d="M95.325,92.838c0.114-0.112,0.21-0.199,0.31-0.285C95.536,92.639,95.439,92.726,95.325,92.838z"/>
		<path fill="none" d="M44.709,129.169l3.543-1.846c0.59-0.306,1.395-0.616,2.043-0.866c1.349-0.521,2.53-1.044,3.571-1.569
			c-1.041,0.525-2.221,1.048-3.57,1.569c-0.648,0.25-1.453,0.56-2.043,0.866L44.709,129.169c-0.32,0.281-0.481,0.444-0.568,0.542
			C44.228,129.612,44.39,129.449,44.709,129.169z"/>
		<path fill="none" d="M80.505,103.664c4.263-1.366,8.751-3.825,11.847-7.45c0.176-0.206,0.324-0.379,0.479-0.56
			c-0.155,0.181-0.303,0.354-0.479,0.56C89.257,99.838,84.769,102.298,80.505,103.664l-5.615,2.586
			c-5.549,3.334-5.652,2.73-6.865,3.943c1.212-1.212,1.316-0.608,6.865-3.942L80.505,103.664z"/>
		<path fill="none" d="M113.675,84.483c3.27-0.528,2.406-1.115,4.195-1.622c0.972-0.276,1.442-0.203,2.45-0.544
			c3.318-1.12,6.282-2.013,9.407-3.927c1.498-0.918,2.319-1.073,3.947-1.9c1.447-0.735,2.136-1.31,3.409-1.964
			c1.213-0.623,2.583-1.466,3.853-1.631c0.014-0.002,0.026-0.002,0.039-0.003c-0.014,0.002-0.025,0.001-0.039,0.003
			c-1.271,0.166-2.641,1.008-3.854,1.631c-1.273,0.654-1.962,1.229-3.409,1.964c-1.629,0.828-2.45,0.982-3.948,1.9
			c-3.125,1.915-6.089,2.807-9.407,3.927c-1.008,0.341-1.478,0.268-2.45,0.544C116.082,83.368,116.946,83.955,113.675,84.483
			c-2.575,0.415-2.928,1.533-8.065,2.593c-3.295,0.68-4.589,0.771-6.367,2.174c1.777-1.403,3.072-1.493,6.367-2.173
			C110.747,86.016,111.1,84.898,113.675,84.483z"/>
		<path fill="none" d="M56.722,377.588c-2.435-2.38-3.894-2.133-4.542-5.434l-2.288,2.324c-1.945,2.191-0.589,3.607,1.078,6.467
			c2.621,4.497,1.684,4.202,6.556,3.735c1.405-4.473,1.805-1.067,0.301-5.214C57.185,377.696,58.141,378.975,56.722,377.588z"/>
		<path fill="none" d="M50.868,320.334c-0.969,1.551,0.176,2.231-0.984,4.163c-1.399,2.33-0.863,0.709-1.247,4.352
			c-0.36,3.408-0.799,6.249-1.272,9.822c-0.497,3.753-0.477,6.53-1.258,9.805c-2.387,9.995,2.353,13.228,3.269,9.483l1.551-26.435
			C51.236,328.635,50.999,323.389,50.868,320.334z"/>
		<path fill="none" d="M84.962,117.25l3.946-1.621c-1.213,0.076-2.244,0.173-2.825,0.361L84.962,117.25z"/>
		<path fill="none" d="M187.3,150.039c-0.691-0.786-0.395-0.559-0.926-1.217c-0.717-0.888-1.045-1.116-2.522-1.012
			c-0.023,2.138,1.455,8.271,6.32,7.961c0.076-1.761-0.908-3.603-2.066-4.885C187.762,150.506,187.601,150.383,187.3,150.039z"/>
		<path fill="none" d="M170.19,80.96c-0.203-2.672-5.016-6.594-7.629-6.637c-3.156,3.519-4.278,3.891-1.523,6.794
			c1.553,1.636,2.437,1.958,4.836,3.932c0.904,0.743,2.094,0.578,3.616,0.813c1.972,1.544,1.588,2.762,4.736,3.025
			C174.159,85.998,171.716,81.717,170.19,80.96z"/>
		<polygon fill="none" points="120.295,96.551 120.295,96.551 120.295,96.551 		"/>
		<path fill="none" d="M104.687,103.91l4.163-1.762c-1.603,0.178-2.964,0.44-3.632,0.96L104.687,103.91z"/>
		<path fill="none" d="M152.149,76.766c0.516,1.025,1.026,2.314,1.77,3.364C153.247,78.882,152.753,77.554,152.149,76.766z"/>
		<g>
			<path fill="none" d="M170.19,80.96c-0.203-2.672-5.016-6.594-7.629-6.637c-3.156,3.519-4.278,3.891-1.523,6.794
				c1.553,1.636,2.437,1.958,4.836,3.932c0.904,0.743,2.094,0.578,3.616,0.813c1.972,1.544,1.588,2.762,4.736,3.025
				C174.159,85.998,171.716,81.717,170.19,80.96z"/>
			<path fill="none" d="M169.443,93.8c-0.094-0.148-0.193-0.291-0.295-0.428c-1.12-2.316-3.322-3.159-4.368-5.423
				c-1.837,0-2.631,0.086-4.138-0.667c-0.729-0.364-1.194-0.738-1.54-1.163c-0.069-0.145-0.137-0.294-0.207-0.453l-0.26-0.262
				c-0.13-0.243-0.249-0.504-0.374-0.788l-3.822-3.843c-0.186-0.199-0.358-0.415-0.519-0.643c-0.671-1.249-1.165-2.576-1.77-3.364
				c-0.261-0.519-0.524-0.977-0.82-1.29c-2.734,2.212,0.013,4.41-4.138,8.954l-1.394,1.71c4.095,2.003,8.872,3.885,13.327,5.358
				C162.81,92.718,165.94,93.492,169.443,93.8z"/>
			<path fill="none" d="M120.321,82.317c-1.008,0.341-1.478,0.268-2.45,0.544c-1.789,0.507-0.925,1.094-4.195,1.622
				c-2.576,0.415-2.929,1.533-8.066,2.594c-3.295,0.68-4.589,0.771-6.367,2.174c-0.41,0.324-0.846,0.717-1.338,1.204
				c-1.05,1.039-1.563,1.496-1.904,1.787c-0.136,0.117-0.245,0.207-0.35,0.297c-0.005,0.005-0.011,0.01-0.016,0.014
				c-0.099,0.086-0.196,0.173-0.31,0.285c-0.237,0.233-0.551,0.573-1.119,1.222c-0.007,0.008-0.013,0.014-0.02,0.023
				c-0.342,0.391-0.792,0.914-1.355,1.571c-0.155,0.181-0.303,0.354-0.479,0.56c-3.096,3.625-7.584,6.084-11.847,7.45l-5.615,2.587
				c-5.549,3.334-5.652,2.73-6.865,3.943c-0.193,0.193-0.417,0.436-0.693,0.744c-0.105,0.117-0.217,0.243-0.339,0.382
				c-0.473,0.537-1.085,1.242-1.924,2.193c-3.292,3.731-3.869,7.322-10.164,10.821c-0.281,0.156-0.571,0.312-0.875,0.467
				c-0.056,0.029-0.108,0.057-0.165,0.086c-1.041,0.525-2.221,1.048-3.57,1.569c-0.648,0.25-1.453,0.56-2.043,0.866l-3.544,1.846
				c-0.32,0.281-0.481,0.444-0.568,0.542c-0.087,0.098-0.1,0.131-0.123,0.153c-0.045,0.042-0.13,0.037-0.922,0.405
				c-0.096,0.044-0.213,0.075-0.308,0.122l-1.048,0.799l-0.445,0.339c-1.412,1.484-2.542,2.922-3.991,4.304
				c-0.494,0.471-1.024,0.936-1.616,1.393c-0.657,0.508-0.896,0.445-0.997,0.518c-0.101,0.072-0.065,0.28-0.172,1.33
				c1.157,1.09,2.6,1.049,4.492,0.842c1.153-0.126,3.259-0.685,4.394-1.082l7.76-3.351c0.003-0.001,0.005-0.002,0.008-0.004
				c6.496-2.806,4.394,0.169,6.776-0.748c3.075-1.182,1.924-3.099,4.271-5.458c2.38-0.808,1.888-0.075,5.153-1.674
				c1.279,0.467,2.845,1.009,4.481,0.261l5.283-4.496l0,0c0.98-0.539,1.021-0.308,2.081-0.822c1.382-0.669,0.186-0.405,1.879-0.944
				l3.863-4.347l3.946-1.621c3.125-0.194,7.504-0.236,8.84-1.244l6.94-10.474l4.163-1.762c3.14-0.348,7.225-0.366,8.96-1.325
				l2.485-4.272h0c0.878-0.401,4.15-1.214,5.222-1.551c5.682-1.788,11.214-2.237,15.187-5.654c-4.34-2.48-8.896-5.699-13.114-9.787
				C125.22,80.722,122.875,81.454,120.321,82.317z"/>
			<path fill="none" d="M161.98,97.67l-0.521,0.878c-1.41,3.171,3.529,3.383,3.825,3.469c1.882,0.543,1.821,1.112,3.823,1.227
				c1.177,0.068,2.292,0.121,2.398-0.099c0.759-1.59,0.545-2.458-0.236-4.021c-0.033-0.067-0.069-0.117-0.103-0.181
				c-1.005-0.02-1.967-0.09-2.857-0.176C166.325,98.576,164.181,98.191,161.98,97.67z"/>
			<path fill="none" d="M186.07,20.151c-6.646-4.792-21.044-1.39-25.695,12.211c-2.877,8.411,1.692,12.798-3.976,14.155
				c-1.273-1.356-2.606-4.165-4.023-5.979c-8.564-10.96-16.89-13.546-26.914-6.698c-5.607,3.831-8.057,11.762-7.252,19.426
				c0.577,7.149,5.193,14.172,10.432,19.812c1.771-0.89,3.62-1.908,6.54-3.6c8.59-4.979,11.024,0.759,14.486-2.334
				c3.118-2.785,6.005-8.047,8.596-11.644c0.827-1.148,1.514-1.982,3.075-2.038c1.201,1.744,2.142,3.139,2.057,5.388
				c-0.021,0.548-0.019,0.627-0.16,1.151l-0.35,0.625c6.42,0.319,0.127-6.891,7.175-5.93c0.395,5.238-1.96,7.176-2.325,11.733
				l-0.068,4.874c3.032,1.707,2.717,2.377,4.879,4.503c1.417,1.394,1.077,1.278,2.231,2.862c0.728,0.998,1.206,1.249,1.919,2.682
				l1.67,3.38c0.395,0.824,0.623,1.706,0.77,2.609c1.544-7.094,4.12-14.916,5.621-19.451
				C187.927,58.305,197.675,28.52,186.07,20.151z"/>
			<path fill="none" d="M146.973,78.968c1.172-3.008-0.228-6.81-5.997-6.076c-0.014,0.002-0.025,0.001-0.039,0.003
				c-1.271,0.166-2.641,1.008-3.854,1.631c-1.273,0.654-1.962,1.229-3.409,1.964c-0.401,0.203-0.751,0.366-1.076,0.509
				c3.487,3.184,6.876,5.641,9.222,7.023C143.094,82.85,146.208,80.931,146.973,78.968z"/>
			<path fill="none" d="M56.722,377.588c-2.435-2.38-3.894-2.133-4.542-5.434l-2.288,2.324c-1.945,2.191-0.589,3.607,1.078,6.467
				c2.621,4.497,1.684,4.202,6.556,3.735c1.405-4.473,1.805-1.067,0.301-5.214C57.185,377.696,58.141,378.975,56.722,377.588z"/>
			<path fill="none" d="M187.3,150.039c-0.691-0.786-0.395-0.559-0.926-1.217c-0.717-0.888-1.045-1.116-2.522-1.012
				c-0.023,2.138,1.455,8.271,6.32,7.961c0.076-1.761-0.908-3.603-2.066-4.885C187.762,150.506,187.601,150.383,187.3,150.039z"/>
			<path fill="none" d="M50.868,320.334c-0.969,1.551,0.176,2.231-0.984,4.163c-1.399,2.33-0.863,0.709-1.247,4.352
				c-0.36,3.408-0.799,6.249-1.272,9.822c-0.497,3.753-0.477,6.53-1.258,9.805c-2.387,9.995,2.353,13.228,3.269,9.483l1.551-26.435
				C51.236,328.635,50.999,323.389,50.868,320.334z"/>
			<path fill="#030303" d="M118.21,53.266c-0.805-7.664,1.644-15.595,7.252-19.426c10.024-6.848,18.35-4.262,26.914,6.698
				c1.418,1.814,2.75,4.622,4.023,5.979c5.668-1.357,1.099-5.744,3.976-14.155c4.651-13.601,19.049-17.003,25.695-12.211
				c11.605,8.369,1.858,38.154-1.313,47.737c-1.5,4.535-4.077,12.357-5.621,19.451c0.54,3.312-0.07,6.938,1.906,9.298l0.93,1.327
				c0.141-3.649,0.769-11.14,5.379-25.552c2.988-9.343,6.916-20.782,7.82-31.667c1.148-13.809-3.324-25.662-16.426-25.899
				c-11.256-0.203-19.063,7.372-22.232,17.001c-0.483,1.466-0.714,2.86-1.277,3.984c-3.666-2.565-5.548-6.218-14.5-8.176
				c-18.256-3.993-34.637,19.157-22.581,39.922c1.659,2.857,3.528,5.46,5.532,7.827c2-0.905,3.451-1.57,4.955-2.326
				C123.403,67.438,118.787,60.415,118.21,53.266z"/>
			<path fill="#030303" d="M162.393,96.972l-0.414,0.698c2.202,0.521,4.346,0.906,6.328,1.098c0.89,0.086,1.852,0.156,2.857,0.176
				C168.666,94.223,165.035,97.365,162.393,96.972z"/>
			<path d="M125.517,95.001c-1.073,0.337-4.344,1.15-5.222,1.551h0l-2.485,4.272c-1.734,0.959-5.819,0.977-8.96,1.325l-4.163,1.762
				l-6.94,10.474c-1.336,1.008-5.714,1.05-8.84,1.244l-3.946,1.621l-3.863,4.347c-1.693,0.539-0.497,0.275-1.879,0.944
				c-1.06,0.514-1.102,0.283-2.081,0.822l0,0l-5.283,4.496c-1.637,0.748-3.202,0.206-4.481-0.261
				c-3.265,1.6-2.774,0.866-5.153,1.674c-2.347,2.359-1.196,4.275-4.271,5.458c-2.381,0.917-0.28-2.058-6.776,0.748
				c-0.003,0.001-0.005,0.002-0.008,0.004l-7.76,3.351c-1.134,0.397-3.24,0.956-4.394,1.082c-1.892,0.207-3.335,0.248-4.492-0.842
				c0.107-1.05,0.071-1.257,0.172-1.33c0.101-0.073,0.339-0.009,0.997-0.518c0.592-0.458,1.122-0.922,1.616-1.393
				c1.449-1.382,2.578-2.819,3.991-4.304l0.445-0.339l1.048-0.799c0.095-0.048,0.213-0.078,0.308-0.122
				c0.792-0.368,0.877-0.363,0.922-0.405c0.022-0.021,0.036-0.055,0.123-0.153c0.087-0.098,0.248-0.261,0.568-0.542l3.544-1.846
				c0.589-0.306,1.395-0.616,2.043-0.866c1.349-0.521,2.529-1.044,3.57-1.569c0.057-0.029,0.109-0.057,0.165-0.086
				c0.304-0.156,0.595-0.312,0.875-0.467c6.295-3.499,6.872-7.09,10.164-10.821c0.839-0.951,1.451-1.656,1.924-2.193
				c0.122-0.139,0.234-0.265,0.339-0.382c0.276-0.308,0.5-0.551,0.693-0.744c1.213-1.213,1.316-0.608,6.865-3.943l5.615-2.587
				c4.263-1.366,8.751-3.825,11.847-7.45c0.175-0.205,0.324-0.379,0.479-0.56c0.563-0.658,1.013-1.18,1.355-1.571
				c0.008-0.009,0.013-0.014,0.02-0.023c0.567-0.649,0.882-0.99,1.119-1.222c0.114-0.112,0.21-0.199,0.31-0.285
				c0.005-0.005,0.011-0.01,0.016-0.014c0.105-0.091,0.214-0.181,0.35-0.297c0.341-0.291,0.854-0.748,1.904-1.787
				c0.492-0.487,0.928-0.88,1.338-1.204c1.778-1.403,3.073-1.494,6.367-2.174c5.137-1.061,5.49-2.179,8.066-2.594
				c3.27-0.528,2.406-1.115,4.195-1.622c0.973-0.276,1.442-0.203,2.45-0.544c2.554-0.862,4.899-1.594,7.269-2.757
				c-1.341-1.299-2.65-2.676-3.903-4.155c-0.981,0.444-2.091,0.944-3.409,1.544c-3.379,1.537-3.179,1.03-5.971,1.955
				c-0.893,0.296-1.757,0.911-2.503,1.161c-0.533,0.178-0.805,0.174-1.327,0.344l-4.443,1.279
				c-6.156,1.027-10.996,3.208-14.743,7.793c-3.842,4.7-2.434,4.429-8.095,7.047l-3.996,1.811c-0.819,0.374-0.678,0.218-1.643,0.498
				c-0.416,0.121-0.584,0.16-1.188,0.425c-0.086,0.038-0.185,0.097-0.271,0.136l-3.781,2.006c-2.389,1.354-4.965,1.556-6.741,2.785
				c-0.649,0.448-0.329,0.127-0.666,0.503l-1.551,2.308c-1.333,1.3-0.596,0.562-1.719,2.001c-0.755,0.969-1.352,1.111-1.871,1.885
				l-3.14,4.483c-0.651,0.818-0.911,1.359-1.688,2.108l-6.952,4.344c-13.008,5.768-6.888,2.906-15.779,10.879
				c-1.018,0.912-1.037,1.056-1.879,1.866c-1.218,1.173-1.008,0.69-2.331,1.492c-2.078,1.259-4.102,3.997-6.134,5.022l-5.033,7.478
				c3.335-2.432,6.214-2.257,9.029-2.886c3.24-0.725,4.727-1.337,9.828-0.455c6.612,1.144,5.997-2.414,11.759-4.89
				c0.812-0.349,7.254-3.83,7.966-4.166c1.769-0.834,1.759,2.969,3.383,1.782c2.758-2.017,1.691-6.373,5.352-7.306
				c2.084-0.531,4.905,2.467,6.399,1.657l17.623-11.989c8.289-4.248,6.817-0.256,11.83-3.056l6.755-10.618
				c5.395-4.812,5.378-0.134,12.735-3.316c0.625-0.271,0.989-0.31,1.544-0.546l10.688-8.271c0.573-0.219,1.369,1.576,3.234,1.471
				c0.321-0.101,0.028-0.044,0.67-0.482c2.07-1.413,3.739-2.149,5.349-3.822c0.496-0.515,0.919-0.944,1.363-1.41
				c-0.541-0.291-1.086-0.593-1.635-0.907C136.731,92.764,131.199,93.213,125.517,95.001z"/>
			<path d="M204.721,131.138l-7.798-11.554c-1.067-2.062-2.85-3.833-4.041-5.68c-1.239-1.922-2.332-4.155-3.858-5.88l-7.052-10.06
				c-0.056,1.451-0.035,2.296-0.157,2.725c-0.452,1.594-2.397,2.625-3.396,1.895c-0.809-1.231-1.024-3.526-0.547-5.037
				c-0.105-2.768,0.432-6.384,1.265-10.209c-0.147-0.903-0.375-1.784-0.77-2.609l-1.67-3.38c-0.712-1.434-1.191-1.684-1.919-2.682
				c-1.153-1.583-0.813-1.468-2.231-2.862c-2.161-2.126-1.846-2.796-4.879-4.503l0.068-4.874c0.365-4.558,2.72-6.495,2.325-11.733
				c-7.047-0.96-0.755,6.249-7.175,5.93l0.35-0.625c0.141-0.524,0.139-0.603,0.16-1.151c0.085-2.249-0.856-3.644-2.057-5.388
				c-1.56,0.055-2.248,0.89-3.075,2.038c-2.591,3.597-5.478,8.859-8.596,11.644c-3.462,3.093-5.897-2.645-14.486,2.334
				c-2.919,1.692-4.768,2.71-6.54,3.6c1.299,1.398,2.634,2.712,3.957,3.92c0.325-0.143,0.676-0.306,1.076-0.509
				c1.447-0.735,2.136-1.31,3.409-1.964c1.213-0.623,2.583-1.466,3.854-1.631c0.014-0.002,0.025-0.001,0.039-0.003
				c5.769-0.733,7.169,3.068,5.997,6.076c-0.765,1.963-3.879,3.882-5.151,5.054c0.038,0.022,0.079,0.048,0.117,0.07
				c1.184,0.689,2.483,1.376,3.859,2.049l1.394-1.71c4.151-4.544,1.404-6.742,4.138-8.954c0.296,0.313,0.559,0.771,0.82,1.29
				c0.604,0.788,1.099,2.116,1.77,3.364c0.161,0.228,0.333,0.444,0.519,0.643l3.822,3.843c0.126,0.284,0.245,0.545,0.374,0.788
				l0.26,0.262c0.07,0.158,0.138,0.308,0.207,0.453c0.347,0.425,0.811,0.799,1.54,1.163c1.507,0.753,2.301,0.667,4.138,0.667
				c1.045,2.264,3.248,3.107,4.368,5.423c0.102,0.137,0.201,0.28,0.295,0.428c1.388,0.122,2.828,0.178,4.393,0.149
				c2.552-0.048,2.78,0.29,2.937,2.78c-0.871,0.911-1.58,2.053-3.739,2.186c-0.64,0.039-1.261,0.041-1.87,0.029
				c0.034,0.064,0.07,0.114,0.103,0.181c0.782,1.563,0.995,2.431,0.236,4.021c-0.105,0.22-1.221,0.167-2.398,0.099
				c-2.002-0.116-1.941-0.685-3.823-1.227c-0.296-0.086-5.235-0.298-3.825-3.469l0.521-0.878c-0.425-0.101-0.854-0.21-1.282-0.321
				c-1.039,4.541,0.395,3.574,1.456,5.952c5.794,0.178,7.678,3.982,10.891-0.168c1.194-1.543,0.128-2.435,1.337-4.098
				c1.819,0.463,1.473,1.047,4.438,4.624c0.053,0.065,0.134,0.159,0.187,0.226l0.538,0.742c0.709,1.031,0.833,1.28,1.493,2.371
				c0.303,0.502,0.952,1.562,1.335,2.063c0.719,0.94,0.806,1.188,1.544,2.228c2.167,3.055,2.058,3.352,3.674,4.041l4.885,7.23
				c0.43,0.681,1.275,1.568,1.588,2.03c0.303,1.442,0.161,1.222,0.795,2.356l1.194,1.762c5.1,7.581-0.668,1.674-1.581,12.11
				c-0.658,7.525,2.481,6.151,3.762,8.613c0,0.001-0.181,1.703-1.871,1.775c-1.634,0.069-1.118-0.253-2.245-1.536l-0.383-0.425
				c-3.479-3.74-7.938-8.932-13.722-3.379c-3.506-0.256-10.149-6.153-14.689-6.352c-1.005-0.741-2.373-1.761-3.64-2.376
				c0.964-3.193,5.119-2.987,5.993-6.054c1.09-3.827-1.14-6.696-3.437-3.58c-2.72,3.69-6.167,8.045-11.122,6.388l-1.774-0.685
				c-2.635-0.743-5.162-2.332-7.604-4.032c-1.172-0.816-1.355-1.358-2.396-2.165c-1.327-1.029-1.297-0.534-2.482-2.07
				c-1.617-2.095-6.248-2.865-4.889,1.533c0.698,2.259,1.314-0.126,1.466,3.104c-1.541,0.732-2.19,1.247-3.727,2.243l-5.626,6.171
				l-12.388,20.998c-1.448,2.501-2.476,5.71-3.755,8.179c-0.043,0.083-0.112,0.184-0.154,0.269
				c-1.123,2.231-0.128,0.965-1.377,2.807c-1.088,1.604-0.965,0.925-1.516,2.903c-0.609,2.185-1.586,3.035-2.508,4.935
				c-1.27,2.617-3.192,9.073-3.943,11.902c-1.251,4.712-2.86-1.465-1.126-8.334c0.703-2.782,3.258-12.109,4.339-14.323l3.281-7.796
				c3.183-6.651,6.109-13.449,9.883-19.7c1.208-2.001,4.778-8.492,4.109-10.495c-0.364-1.091-1.324-1.693-2.326-1.571
				c-2.797,0.34-5.529,8.445-7.307,10.971c-0.915,1.299-0.513,1.145-1.159,2.606c-0.335,0.759-0.883,1.822-1.308,2.552
				c-0.91,1.558-1.53,3.107-2.298,4.871c-0.863,1.98-1.803,3.3-2.577,5.047c-1.757,3.97-3.159,8.135-5.077,11.895
				c-1.915,3.757-4.313,11.498-4.42,15.668l-1.693,13.19c-1.552,6-0.945,14.037-2.952,19.799c-0.826,2.37-0.291,4.226-0.936,6.512
				c-0.168,0.595-0.81,1.649-1.101,2.587c-0.511,1.647-0.398,1.473-0.97,2.848c-0.641,1.543-8.225,18.662-8.432,10.354
				c-0.066-2.626-0.019-5.141-0.509-7.444c-5.607-0.4-3.616,2.269-4.26,6.909c-0.266,1.916-0.637,2.033-0.676,4.795
				c-0.027,1.884-0.031,3.176-0.28,4.959l-2.376,14.241c-0.102,0.755-0.138,1.641-0.269,2.361c-0.366,2.012-0.265,0.699-0.599,1.962
				c-0.956,3.623-0.288,6.081-1.965,9.138c-1.275,2.325-1.98,5.201-2.404,8.179c-0.667,4.684-0.312,17.029,0.286,21.322
				c0.309,2.224,0.684,2.087,0.727,4.737c0.034,2.177,0.069,3.466-0.39,5.245c-0.828,3.212-0.56,6.419-1.114,9.838l-1.108,4.425
				c-0.24,2.027-0.562,3.26-0.776,4.746c-0.393,2.745-0.122,7.745-0.12,10.732c0.003,6.678,0.239,3.869,0.735,7.82
				c0.31,2.474,0.139,5.274,0.615,7.678c0.401,2.019,0.57,1.408,0.771,4.342c0.428,6.275,1.451,11.334,6.841,14.259
				c-1.44,2.752-1.562,1.214-4.024,2.461c-1.494,0.756-1.709,2.089-3.75,2.083c-0.359-2.723-0.142-2.798-1.188-4.811
				c-0.832-1.599-0.678-2.087-1.823-3.679l-5.017-5.897c-2.517-3.638-0.603-15.449-0.488-20.361
				c0.18-7.633,0.506-14.566,0.482-22.463c-0.01-3.65-0.228-6.983-1.972-9.087c-1.448-1.746-0.838-1.226-1.494-3.864
				c-1.131-4.543-0.265-21.737-0.561-28.05c-0.267-5.71-0.158-5.409-1.363-9.682c-0.544-1.932-0.504-2.646-1.158-4.484
				c-0.42-1.178-0.919-2.825-1.403-4.054c-1.033-2.618-1.669-6.041-2.633-8.949c-0.557-1.679-0.641-2.557-1.375-4.12
				c-0.38-0.81-0.475-1.264-0.868-2.11c-1.564-3.36-2.07-6.606-3.214-10.372c-0.93-3.057-0.763-6.171-2.628-8.421
				c-6.226-0.238-1.708,9.975-1.049,11.739c0.554,1.484,0.245,2.064,0.699,3.618c0.31,1.062,0.71,1.334,0.956,2.821
				c0.877,5.297,1.484,4.039,1.406,6.844c-3.75,2.067-17.823,3.684-23.516,4.72c4.041,0.226,15.871,2.392,18.244,2.18
				c3.067-0.275,3.724-1.193,7.725-0.851c0.392,2.964,2.059,5.653,2.802,8.707c2.017,8.289,1.89,9.386,1.89,18.892
				c-0.001,4.835-0.319,11.961,0.281,16.038c0.26,1.769,1.001,5.525,0.725,7.192c-0.302,1.828-0.794,1.557-1.181,2.59
				c-0.363,0.971-0.311,2.429-0.681,3.656c-0.431,1.427-0.372,1.416-0.665,3.215c-0.177,1.087-0.463,1.626-0.737,3.005
				c-0.454,2.281-0.72,5.049-0.819,7.476c-0.127,3.072-0.951,4.26-1.118,6.891l-0.791,7.352c-0.789,3.398-1.288,11.689,0.989,14.386
				c2.154,2.552,10.115,5.604,7.208,9.504c-2.756,3.698-4.749,5.582-2.457,10.573c0.754,1.641,2.552,3.508,4.14,4.626
				c2.47,1.74,4.06,1.116,7.549,1.24c1.153,1.837,0.525,0.983,1.198,3.172c0.716,2.333,2.281,4.106,4.329,5.036
				c3.93,1.782,19.159,0.877,21.946-0.413c8.04-3.72,0.298-10.898-0.482-11.932l-0.345-0.488c-1.225-1.682-3.186-2.877-4.372-4.407
				c-7.129-9.196-5.896-2.369-9.854-9.064c-1.177-1.99-0.701-0.812-0.936-3.658c-0.166-2.004-0.717-2.695-0.969-4.086
				c-0.268-1.477-0.037-3.035-0.3-4.524c-0.266-1.511-0.937-1.989-1.019-3.904c-0.339-7.833-0.799-15.922-0.032-23.763
				c0.24-2.448,0.642-2.169,0.892-4.297c0.877-7.467,1.1-3.858,1.676-8.034c0.868-6.305,0.556-11.47-0.039-18.006
				c-0.55-6.041-0.905-11.995-0.121-18.069l6.123-28.065c0.324-1.578,0.451-2.741,0.798-4.188c0.336-1.395,0.874-1.663,1.854-2.697
				l7.073-7.195c0.571-0.769,1.343-2.034,1.818-2.839l1.679-3.411c0.52-0.937,1.427-1.756,1.879-2.649l3.283-11.492
				c0.19-2.642,0.466-2.505,0.805-4.049l1.542-8.145c0.494-3.924,1.479-3.839,2.98-6.898l13.967-29.712
				c0.03-0.067,0.77-1.369,0.77-1.37c0.484-0.711-0.001-0.016,0.56-0.724c0.301-0.38,0.461-0.567,0.541-0.648
				c0-0.001,0-0.001,0.001-0.001c1.239-2.037,1.281-4.87,2.902-6.905l5.26-9.583c2.108-4.285,5.011-7.792,8.029-11.299
				c3.155-3.665,6.769-7.204,12.803-2.916c4.092,2.908,10.304,2.286,14.603,4.425c1.036,0.516,2.476,0.858,3.263,1.315l12.705,6.365
				c6.23,3.729,2.63,1.343,6.552,8.13c1.27,2.198,2.554,3.608,5.833,3.73c7.778,0.291,4.475-1.509,9.798-3.258
				c1.402-0.461,3.24-0.989,4.299-2.076C206.026,150.643,207.41,135.619,204.721,131.138z M169.49,85.862
				c-1.521-0.235-2.712-0.07-3.616-0.813c-2.399-1.974-3.283-2.296-4.836-3.932c-2.755-2.903-1.633-3.274,1.523-6.794
				c2.613,0.043,7.427,3.964,7.629,6.637c1.526,0.757,3.969,5.038,4.036,7.926C171.078,88.623,171.463,87.406,169.49,85.862z
				 M49.376,357.958c-0.916,3.745-5.656,0.512-3.269-9.483c0.781-3.274,0.761-6.051,1.258-9.805
				c0.473-3.572,0.912-6.414,1.272-9.822c0.384-3.643-0.152-2.022,1.247-4.352c1.16-1.932,0.016-2.612,0.984-4.163
				c0.131,3.054,0.368,8.301,0.059,11.189L49.376,357.958z M57.526,384.68c-4.872,0.467-3.936,0.762-6.556-3.735
				c-1.667-2.859-3.023-4.276-1.078-6.467l2.288-2.324c0.648,3.3,2.107,3.053,4.542,5.434c1.419,1.387,0.463,0.108,1.105,1.879
				C59.332,383.613,58.931,380.207,57.526,384.68z M183.851,147.81c1.478-0.104,1.805,0.124,2.522,1.012
				c0.531,0.658,0.235,0.431,0.926,1.217c0.302,0.344,0.462,0.467,0.805,0.847c1.158,1.283,2.142,3.124,2.066,4.885
				C185.306,156.081,183.828,149.948,183.851,147.81z"/>
			<path d="M145.797,86.141c-1.376-0.673-2.676-1.359-3.859-2.049c-0.037-0.022-0.079-0.048-0.117-0.07
				c-0.132,0.121-0.25,0.237-0.338,0.342c-0.967,1.154,2.32,1.167,1.573,2.303c-0.7,1.065-1.492,1.939-2.353,2.68
				c0.549,0.314,1.094,0.616,1.635,0.907c0.277-0.291,0.561-0.594,0.882-0.951L145.797,86.141z"/>
			<path d="M179.136,87.339c-0.832,3.824-1.369,7.441-1.265,10.209c-0.477,1.511-0.262,3.805,0.547,5.037
				c1,0.73,2.944-0.302,3.396-1.895c0.122-0.429,0.101-1.274,0.157-2.725l-0.93-1.327C179.066,94.277,179.676,90.652,179.136,87.339
				z"/>
			<path d="M162.393,96.972l-0.708,0.148l-0.984,0.207c-0.002,0.008-0.003,0.014-0.005,0.022c0.429,0.11,0.857,0.22,1.282,0.321
				L162.393,96.972z"/>
			<path d="M127.59,79.56c0.708-0.348,1.419-0.729,2.138-1.17c1.13-0.692,1.875-0.951,2.871-1.391
				c-1.323-1.208-2.659-2.522-3.957-3.92c-1.504,0.756-2.955,1.421-4.955,2.326C124.939,76.884,126.249,78.261,127.59,79.56z"/>
			<path d="M165.556,95.327c-4.122,0.447-3.066,1.128-3.163,1.644c2.641,0.393,6.272-2.748,8.772,1.972
				c0.609,0.012,1.23,0.011,1.87-0.029c2.159-0.133,2.868-1.275,3.739-2.186c-0.158-2.49-0.385-2.828-2.937-2.78
				c-1.565,0.029-3.006-0.027-4.393-0.149c0.289,0.454,0.536,0.966,0.714,1.571C168.608,95.308,167.102,95.159,165.556,95.327z"/>
		</g>
		<path d="M14.581,260.778l-0.463,0.292c0.376-0.089,0.851-0.184,1.4-0.283C15.13,260.765,14.81,260.76,14.581,260.778z"/>
		<path d="M115.866,166.941C115.298,167.875,116.16,166.641,115.866,166.941L115.866,166.941z"/>
		<path fill="#FFFFFF" d="M67.333,110.937c0.276-0.308,0.5-0.551,0.693-0.744C67.833,110.386,67.609,110.629,67.333,110.937z"/>
		<path fill="#FFFFFF" d="M53.866,124.888c0.057-0.029,0.109-0.057,0.165-0.086C53.975,124.83,53.923,124.859,53.866,124.888z"/>
		<path fill="#FFFFFF" d="M94.207,94.06c0.567-0.649,0.882-0.989,1.119-1.222C95.088,93.07,94.774,93.411,94.207,94.06z"/>
		<path fill="#FFFFFF" d="M92.832,95.654c0.563-0.658,1.013-1.18,1.355-1.571C93.844,94.474,93.395,94.996,92.832,95.654z"/>
		<path fill="#FFFFFF" d="M65.07,113.512c0.839-0.951,1.451-1.656,1.924-2.193C66.521,111.857,65.909,112.561,65.07,113.512
			c-3.292,3.732-3.87,7.323-10.164,10.822C61.201,120.835,61.778,117.244,65.07,113.512z"/>
		<path fill="#FFFFFF" d="M43.406,138.832c-1.134,0.397-3.24,0.956-4.394,1.082c-1.892,0.207-3.335,0.249-4.492-0.842
			c0.107-1.048,0.071-1.257,0.172-1.329c-0.101,0.072-0.065,0.28-0.172,1.33c1.157,1.09,2.6,1.049,4.492,0.842
			C40.165,139.788,42.271,139.23,43.406,138.832l7.76-3.351c0.003-0.001,0.005-0.002,0.008-0.004
			c-0.003,0.001-0.005,0.002-0.008,0.003L43.406,138.832z"/>
		<path fill="#FFFFFF" d="M95.635,92.553c0.005-0.005,0.011-0.01,0.016-0.014C95.645,92.543,95.64,92.548,95.635,92.553z"/>
		<path fill="#FFFFFF" d="M41.295,131.528l0.444-0.339L41.295,131.528c-1.413,1.485-2.542,2.922-3.991,4.304
			C38.753,134.45,39.883,133.013,41.295,131.528z"/>
		<path fill="#FFFFFF" d="M99.243,89.25c-0.41,0.324-0.846,0.717-1.338,1.204c-1.05,1.039-1.563,1.496-1.904,1.787
			c0.341-0.291,0.854-0.748,1.904-1.787C98.397,89.967,98.833,89.574,99.243,89.25z"/>
		<path fill="#FFFFFF" d="M44.141,129.71c-0.087,0.098-0.1,0.131-0.123,0.153C44.041,129.842,44.054,129.809,44.141,129.71z"/>
	</g>
	<path fill-rule="evenodd" clip-rule="evenodd" d="M54.268,397.183c0.838-0.115,8.046,0.309,10.239,0.316l64.074-0.746
		c-11.258-1.168-22.116-1.205-31.841-2.197c-1.795-0.183-3.844-0.067-5.493-0.288c-10.536-1.41-34.259-0.227-43.48-0.912
		c-4.052-0.301-5.667,0.954-10.079-0.539c-0.186-2.952,6.732-2.158,15.691-2.444c2.416-0.077,3.992,0.41,5.687,0.364
		c4.855-0.132,6.298-0.557,12.284-0.418c15.187,0.354,20.751,0.492,23.335,0.462c3.35-0.039,15.546,0.667,17.099,0.572l60.789,1.365
		c2.371,0.071,5.913,0.323,8.307,0.379c10.101,0.181,33.39,0.445,42.625,1.562c1.367,0.174,2.316,0.033,3.664,0.112
		c1.427,0.083,1.441,0.333,3.641,0.349c6.09,0.046,5.072,0.643,7.027,0.622c2.733,1.905,4.89,0.718,7.81,1.347
		c0.645,0.139,2.003,0.698,4.639,0.926c4.85,0.42,10.98-0.276,9.989,3.373l-42.755-1.58c-6.481-0.176-36.903-2.457-42.149-1.445
		c0.821,1.065,0.55-0.08,5.248,0.947c5.565,1.217,7.798,0.451,13.511,1.731c3.605,0.807,8.804,0.351,8.889,3.471
		c-7.388,1.499-19.599-1.365-25.562-2.217c-24.181-3.456-62.434-2.667-88.174-2.515c-2.503,0.014-0.472-0.018-1.71,0.215
		c-2.634,0.496-2.28-0.407-3.446,0.244c-4.865-0.225-10.061-0.16-14.948-0.224c-6.414-0.085-5.651,0.489-10.359-0.063l-22.632,1.101
		c-2.371-0.205-2.217-1.137-3.087-2.035C33.345,398.914,43.129,398.707,54.268,397.183"/>
	
		<ellipse transform="matrix(0.2004 -0.9797 0.9797 0.2004 35.8484 243.3347)" fill-rule="evenodd" clip-rule="evenodd" cx="166.994" cy="99.706" rx="3.152" ry="3.839"/>
	
		<ellipse transform="matrix(0.2004 -0.9797 0.9797 0.2004 35.8484 243.3347)" fill="none" stroke="#000000" stroke-width="0.5669" stroke-miterlimit="22.9256" cx="166.994" cy="99.706" rx="3.152" ry="3.839"/>
	<path fill-rule="evenodd" clip-rule="evenodd" fill="#000003" d="M238.957,126.362c4.623-0.846,4.178,3.831,1.366,4.279
		c0.047-1.151,0.201-2.875-0.923-3.233c-0.076-0.025-0.15-0.04-0.223-0.048C239.09,127.046,239,126.664,238.957,126.362z
		 M248.041,161.819c0.395-2.713-1.533-7.502,1.115-9.531l0.971-2.402l0.077-0.105c0.192-0.267,0.385-0.535,0.577-0.802
		c3.668-4.613,5.53-10.518,7.261-15.909c1.66-3.604,3.254-9.057-1.774-11.117c-1.729-0.709-4.061-0.853-6.39-0.645
		c-0.31-0.03-0.653-0.007-0.925,0.004c-0.605,0.023-1.215,0.062-1.82,0.116c-0.4,0.036-0.801,0.079-1.199,0.136
		c-1.2,0.173-1.751,0.394-2.537,1.135c-0.079,0.076-0.157,0.153-0.232,0.232l-0.01,0.003l-0.039,0.045l-0.639,0.334l-0.095-0.153
		l-0.366,1.085l-0.282,0.245c-1.329-0.26-2.575-0.203-3.861,0.398c-0.606-0.698-1.02-1.406-2.034-2.005l-1.28-0.757l-0.352,1.279
		c-0.089,0.32-0.178,0.624-0.04,0.931c0.116,0.258,0.364,0.428,0.575,0.634c0.386,0.378,0.71,0.827,0.997,1.256l2.724,6.254
		l0.582,0.042c2.496,0.183,4.052-0.691,5.026-2.079c1.17,3.359-0.89,10.242-2.484,13.464l-0.235,0.474
		c-1.743,1.113-1.141,6.044-1.663,7.447c-0.445,1.196,1.009,0.126,0.663,1.334c-0.21,0.734,0.324,0.853,0.206,1.592
		c-0.266,1.666,0.183,2.633,0.964,4.147l2.059-2.794L248.041,161.819z M244.547,155.147l-0.269-1.647l-1.469,1.368
		c-0.186,0.173-0.328,0.365-0.436,0.57c-0.186-3.473-2.303-5.715,0.065-8.495l2.257-3.295l-1.974,2.411
		c-0.012-0.007,0.804-2.316,0.791-2.323c0.711-2.226,1.783-5.949,2.246-6.959c0.465-1.015,1.005-1.375,1.143-2.53
		c0.286-2.402,0.622-4.135-1.354-6.022l-1.827-2.926c0.284-0.442,0.708-0.934,1.116-1.318c3.499-1.025,8.072-1.727,10.069,0.96
		c2.02,2.717,2.336,5.34,1.112,8.356c-0.177,0.437-3.595,10.953-3.797,11.39c0.93-3.627,3.389-13.84,2.444-14.838l-0.77,4.387
		c-0.561,1.356-1.222,4.76-1.832,6.104c-1.557,2.474-2.246,8.036-3.952,10.488c-2.439,3.508-1.955,2.553-2.607,6.381
		L244.547,155.147z"/>
	<path fill="none" stroke="#000003" stroke-width="0.216" stroke-miterlimit="22.9256" d="M238.957,126.362
		c4.623-0.846,4.178,3.831,1.366,4.279c0.047-1.151,0.201-2.875-0.923-3.233c-0.076-0.025-0.15-0.04-0.223-0.048
		C239.09,127.046,239,126.664,238.957,126.362z M248.041,161.819c0.395-2.713-1.533-7.502,1.115-9.531l0.971-2.402l0.077-0.105
		c0.192-0.267,0.385-0.535,0.577-0.802c3.668-4.613,5.53-10.518,7.261-15.909c1.66-3.604,3.254-9.057-1.774-11.117
		c-1.729-0.709-4.061-0.853-6.39-0.645c-0.31-0.03-0.653-0.007-0.925,0.004c-0.605,0.023-1.215,0.062-1.82,0.116
		c-0.4,0.036-0.801,0.079-1.199,0.136c-1.2,0.173-1.751,0.394-2.537,1.135c-0.079,0.076-0.157,0.153-0.232,0.232l-0.01,0.003
		l-0.039,0.045l-0.639,0.334l-0.095-0.153l-0.366,1.085l-0.282,0.245c-1.329-0.26-2.575-0.203-3.861,0.398
		c-0.606-0.698-1.02-1.406-2.034-2.005l-1.28-0.757l-0.352,1.279c-0.089,0.32-0.178,0.624-0.04,0.931
		c0.116,0.258,0.364,0.428,0.575,0.634c0.386,0.378,0.71,0.827,0.997,1.256l2.724,6.254l0.582,0.042
		c2.496,0.183,4.052-0.691,5.026-2.079c1.17,3.359-0.89,10.242-2.484,13.464l-0.235,0.474c-1.743,1.113-1.141,6.044-1.663,7.447
		c-0.445,1.196,1.009,0.126,0.663,1.334c-0.21,0.734,0.324,0.853,0.206,1.592c-0.266,1.666,0.183,2.633,0.964,4.147l2.059-2.794
		L248.041,161.819z M244.547,155.147l-0.269-1.647l-1.469,1.368c-0.186,0.173-0.328,0.365-0.436,0.57
		c-0.186-3.473-2.303-5.715,0.065-8.495l2.257-3.295l-1.974,2.411c-0.012-0.007,0.804-2.316,0.791-2.323
		c0.711-2.226,1.783-5.949,2.246-6.959c0.465-1.015,1.005-1.375,1.143-2.53c0.286-2.402,0.622-4.135-1.354-6.022l-1.827-2.926
		c0.284-0.442,0.708-0.934,1.116-1.318c3.499-1.025,8.072-1.727,10.069,0.96c2.02,2.717,2.336,5.34,1.112,8.356
		c-0.177,0.437-3.595,10.953-3.797,11.39c0.93-3.627,3.389-13.84,2.444-14.838l-0.77,4.387c-0.561,1.356-1.222,4.76-1.832,6.104
		c-1.557,2.474-2.246,8.036-3.952,10.488c-2.439,3.508-1.955,2.553-2.607,6.381L244.547,155.147z"/>
	<g>
		<path d="M166.793,297.253c1.717,0,2.971,0.396,3.764,1.189c0.596,0.594,0.826,1.288,0.693,2.081
			c-0.066,0.661-0.215,1.173-0.445,1.536c-0.232,0.364-0.48,0.644-0.742,0.842c-0.332,0.198-0.711,0.413-1.141,0.644
			c-0.43,0.232-0.908,0.381-1.436,0.446c-1.719,0.133-3.105,0.248-4.162,0.347s-1.949,0.166-2.674,0.198
			c-0.729,0.034-1.404,0.066-2.031,0.099c-0.629,0.034-1.338,0.066-2.131,0.099c-0.793,0.034-1.75,0.099-2.873,0.198
			c-1.124,0.099-2.576,0.215-4.359,0.347c-0.331,2.115-0.743,4.889-1.238,8.323c-0.496,3.435-1.041,7.695-1.635,12.78
			c-1.85,14.598-3.039,26.817-3.567,36.658c-0.068,1.322-0.036,2.89,0.098,4.706c0.133,1.817,0.364,3.879,0.695,6.192
			c0.065,0.461-0.067,0.857-0.396,1.189c-0.265,0.263-0.598,0.396-0.999,0.396h-0.201c-1.14-0.198-2.31-0.628-3.514-1.288
			c-0.135-0.066-0.218-0.116-0.252-0.148c-0.034-0.034-0.118-0.083-0.25-0.148c-1.74-1.981-2.61-5.284-2.61-9.908
			c0-7.133,0.603-17.239,1.808-30.317c1.205-12.879,1.807-21.069,1.807-24.57c0-0.528-0.017-1.041-0.051-1.536
			c-0.034-0.496-0.05-0.974-0.05-1.437c-1.74,0-3.537,0.049-5.39,0.148c-1.854,0.099-3.706,0.282-5.554,0.545
			c-1.85,0.265-3.601,0.644-5.251,1.139c-1.652,0.496-3.071,1.14-4.26,1.932c-0.661,0.463-0.991,0.827-0.991,1.09
			c0,0.133,0.065,0.331,0.198,0.594c0.132,0.265,0.627,0.562,1.486,0.892c0.726,0.331,1.7,0.594,2.923,0.792
			c1.221,0.198,2.658,0.232,4.31,0.099c0.792-0.065,1.816-0.198,3.071-0.396c1.254-0.198,2.443-0.362,3.567-0.495
			c1.122-0.132,2.101-0.164,2.935-0.099c0.833,0.066,1.25,0.331,1.25,0.792c0,0.265-0.068,0.529-0.201,0.792
			c-0.805,1.322-1.686,2.345-2.646,3.071c-0.96,0.728-2,1.288-3.123,1.685c-0.728,0.265-1.486,0.495-2.278,0.693
			c-0.793,0.198-2.147,0.331-4.062,0.396c-2.378,0.066-4.409-0.115-6.093-0.545c-1.685-0.429-3.088-1.041-4.211-1.833
			c-1.124-0.924-2.015-2.046-2.675-3.369c-0.661-1.32-0.926-2.938-0.792-4.854c0-0.461,0.099-1.073,0.297-1.833
			c0.198-0.759,0.545-1.536,1.041-2.328c0.495-0.793,1.204-1.536,2.13-2.229c0.924-0.693,2.113-1.238,3.567-1.635
			c1.519-0.396,3.698-0.792,6.539-1.188c2.839-0.396,6.143-0.759,9.907-1.09c1.265-0.065,2.215-0.132,2.852-0.198
			c0.635-0.065,1.188-0.115,1.656-0.149c0.468-0.032,0.937-0.049,1.406-0.049c0.468,0,1.152-0.016,2.051-0.049
			c0.898-0.033,2.141-0.083,3.726-0.149c1.585-0.065,3.698-0.164,6.341-0.297c3.235-0.131,5.563-0.248,6.985-0.347
			c1.42-0.099,2.459-0.181,3.121-0.248c0.658-0.065,1.189-0.115,1.584-0.148C164.711,297.27,165.537,297.253,166.793,297.253z"/>
		<path d="M188.886,337.478c0.527,0,1.04,0.198,1.535,0.594s0.743,1.057,0.743,1.981c0,2.576-0.728,5.483-2.18,8.719
			c-1.651,3.832-3.566,5.746-5.746,5.746c-1.256,0-2.675-0.297-4.261-0.892c-0.331,1.585-0.628,3.205-0.892,4.855
			c-0.265,1.651-0.562,3.336-0.892,5.053v0.099v0.099c-0.792,2.576-1.817,4.26-3.071,5.053c-1.255,0.792-2.412,1.189-3.468,1.189
			c-2.575,0-4.69-1.784-6.341-5.35c-0.594,1.917-1.403,3.633-2.427,5.152c-1.025,1.52-2.396,2.279-4.112,2.279
			c-0.925,0-1.932-0.297-3.021-0.892c-1.09-0.594-1.999-1.848-2.725-3.765c-1.057-2.576-1.585-6.505-1.585-11.79
			c0-0.065,0.016-0.263,0.049-0.594c0.033-0.33,0.065-0.892,0.099-1.685c0.033-0.792,0.115-1.865,0.248-3.22
			c0.131-1.353,0.297-3.121,0.495-5.3c0.198-2.443,0.379-4.359,0.545-5.747c0.164-1.387,0.297-2.427,0.396-3.121
			c0.099-0.694,0.164-1.14,0.198-1.338c0.032-0.198,0.082-0.362,0.148-0.495c0.595-1.452,1.685-2.18,3.27-2.18
			c1.188,0,2.542,0.76,4.062,2.279l0.595,0.594l-0.297,0.892c-2.576,6.539-3.864,14.103-3.864,22.688
			c0,4.096,0.495,6.573,1.486,7.431c1.056-1.784,1.981-4.162,2.774-7.134c0.329-1.452,0.577-2.757,0.743-3.913
			c0.164-1.155,0.247-2.195,0.247-3.121c0-0.461,0.05-1.189,0.148-2.18c0.1-0.991,0.214-2.245,0.347-3.765
			c0.132-1.519,0.248-2.757,0.347-3.715c0.1-0.957,0.149-1.7,0.149-2.229c0-0.131-0.018-0.263-0.05-0.396
			c-0.034-0.132-0.05-0.263-0.05-0.396v-0.198v-0.099l-0.595-2.18l0.496-0.595c0.857-0.991,2.113-1.486,3.765-1.486
			c2.442,0,3.666,1.124,3.666,3.368c0,0.859-0.166,1.751-0.496,2.675c-0.396,1.387-0.594,2.213-0.594,2.477
			c-0.265,2.973-0.463,5.367-0.595,7.183c-0.133,1.817-0.198,3.088-0.198,3.814c0,1.057,0.05,2.016,0.148,2.873
			c0.1,0.859,0.214,1.652,0.347,2.378c0.198,0.728,0.38,1.471,0.545,2.229c0.164,0.76,0.313,1.503,0.446,2.229
			c0.132,0.331,0.362,0.562,0.693,0.693c0.198-0.198,0.528-0.842,0.991-1.932c0.461-1.09,1.056-3.319,1.783-6.688
			c0.792-3.765,1.188-6.307,1.188-7.629c0-0.131-0.034-0.495-0.099-1.089c-0.066-0.595-0.232-1.65-0.496-3.17
			c-0.396-2.443-0.594-4.26-0.594-5.449c0-2.378,0.016-3.896,0.049-4.558c0.033-0.659,0.05-1.056,0.05-1.189
			c0.33-2.443,1.222-3.963,2.675-4.557l0.595-0.297l0.595,0.297c1.849,0.859,2.839,2.313,2.972,4.359l0.496,15.456
			c0.064,0.133,0.148,0.248,0.247,0.347c0.1,0.099,0.446,0.148,1.041,0.148c0.131,0,0.347-0.015,0.644-0.049
			c0.297-0.033,0.61-0.198,0.941-0.496c0.329-0.297,0.677-0.743,1.04-1.337c0.362-0.594,0.677-1.452,0.941-2.576
			c0.527-1.915,0.874-3.186,1.04-3.814c0.164-0.627,0.28-1.006,0.347-1.14C186.937,337.973,187.696,337.478,188.886,337.478z"/>
		<path d="M214.941,336.388c1.585,0,2.378,0.792,2.378,2.377c0,1.719-0.232,3.551-0.693,5.499c-0.463,1.949-1.189,4.012-2.18,6.192
			c-1.917,4.294-4.492,6.44-7.729,6.44c-0.197,0-0.463-0.049-0.792-0.148c-0.331-0.099-0.958-0.313-1.883-0.644
			c-0.131,0.661-0.28,1.337-0.444,2.031c-0.164,0.694-0.345,1.437-0.542,2.229v0.198c-0.591,1.718-1.117,3.138-1.577,4.26
			c-0.46,1.124-0.887,2.016-1.28,2.675c-1.709,2.774-3.845,4.161-6.407,4.161c-3.155,0-5.487-1.585-6.999-4.756
			c-1.381-2.839-2.069-7.034-2.069-12.582c0-6.604,0.524-11.196,1.577-13.771v-0.595c-0.066-0.396-0.099-0.743-0.099-1.04
			c0-0.297,0-0.578,0-0.842v-0.099c0.132-0.991,0.395-1.684,0.789-2.081c0.065-0.263,0.163-0.693,0.294-1.288
			c0.132-0.594,0.362-1.551,0.692-2.873c0.196-0.991,0.51-1.783,0.937-2.378c0.428-0.594,0.87-1.056,1.33-1.387
			c0.46-0.33,0.919-0.545,1.381-0.644c0.46-0.099,0.887-0.148,1.281-0.148c2.037,0,4.206,0.859,6.507,2.576
			c2.301,1.652,3.812,3.501,4.536,5.548c0.064,0.265,0.146,0.661,0.244,1.189c0.099,0.529,0.181,1.337,0.248,2.427
			c0.064,1.09,0.131,2.561,0.196,4.409c0.065,1.85,0.099,4.195,0.099,7.034c0.33,0.265,0.727,0.396,1.189,0.396
			c0.595,0,1.271-0.164,2.031-0.496c0.758-0.33,1.501-1.254,2.229-2.774c0.132-0.396,0.38-1.172,0.743-2.328
			c0.362-1.155,0.843-3.087,1.437-5.796C212.762,337.379,213.619,336.388,214.941,336.388z M196.216,362.147
			c0.991-2.18,1.635-3.879,1.933-5.103c0.297-1.221,0.445-2.096,0.445-2.625c0-0.924-0.066-2.014-0.198-3.269
			c-0.133-1.254-0.331-2.641-0.594-4.161c-0.396-2.113-0.645-3.567-0.743-4.359c-0.1-0.793-0.148-1.353-0.148-1.685
			c0-0.33,0-0.693,0-1.09c0-0.396,0.064-0.857,0.198-1.387c0.064-0.528,0.099-0.974,0.099-1.338c0-0.362,0-0.644,0-0.842
			c0-0.924-0.166-1.536-0.495-1.833c-0.331-0.297-0.761-0.446-1.288-0.446c-0.066,0.066-0.183,0.232-0.347,0.496
			c-0.166,0.265-0.364,0.71-0.595,1.337c-0.232,0.628-0.495,1.503-0.793,2.625c-0.297,1.124-0.611,2.576-0.94,4.359
			c-0.529,2.774-0.926,5.201-1.189,7.282c-0.265,2.081-0.396,3.881-0.396,5.399c0,0.926,0.033,1.949,0.1,3.071
			c0.064,1.124,0.214,2.197,0.445,3.22c0.231,1.025,0.545,1.882,0.941,2.576c0.396,0.694,0.925,1.075,1.585,1.14
			c0.132-0.132,0.348-0.412,0.645-0.842C195.176,364.245,195.622,363.403,196.216,362.147z"/>
	</g>
	<g>
		<path d="M280.846,393.902h0.116c1.273,0,1.91,0.271,1.91,0.812c0,0.314-0.251,0.603-0.752,0.864l-0.897-0.105h-1.273v2.54
			c0,6.843,0.337,12.839,1.013,17.987v0.341c0,1.57-0.666,2.565-1.997,2.984l-0.753,0.079c-1.737,0-2.886-1.326-3.445-3.98
			l-0.202-0.89c0.174-0.506,0.482-0.76,0.927-0.76c0.501,0,0.868,0.742,1.1,2.226c0.366,0.96,0.82,1.563,1.36,1.807h0.608
			c0.443-0.191,0.665-0.654,0.665-1.388v-0.262c-0.56-5.236-0.839-8.448-0.839-9.635c-0.116-2.025-0.174-4.739-0.174-8.144v-2.67
			h-0.087l-2.2,0.157h-0.261c-0.733-0.07-1.1-0.341-1.1-0.812c0.097-0.489,0.463-0.733,1.1-0.733h0.464L280.846,393.902z"/>
		<path d="M285.825,393.719c0.482,0,0.763,0.332,0.84,0.995h-0.087l0.087,0.262c0.656,0,2.479-0.184,5.472-0.55
			c0.481,0.157,0.724,0.428,0.724,0.812c0,0.559-1.303,0.917-3.908,1.073l-2.548,0.314v1.152c0,0.82,0.366,4.146,1.101,9.976h3.705
			c0.502,0,0.811,0.253,0.927,0.759c0,0.542-0.454,0.812-1.361,0.812h-3.271v0.105l-0.087,5.42c0,1.292,0.145,2.234,0.434,2.827
			l5.732-0.34c0.617,0.069,0.926,0.313,0.926,0.732c0,0.56-0.676,0.838-2.026,0.838c-3.474,0.175-5.21,0.341-5.21,0.498
			c-0.695,0-1.178-0.96-1.448-2.881l-0.145-1.989l0.059-5.943l-1.071-10.813v-0.812c0-2.164,0.356-3.247,1.071-3.247H285.825z"/>
		<path d="M297.173,393.091c0.888,0.401,2.19,0.602,3.908,0.602l4.284-0.078l0.463,0.472v0.262c0,5.026-2.547,12.672-7.642,22.936
			c2.566,0.209,4.447,0.314,5.645,0.314h0.637l2.171-0.079c0.444,0.157,0.666,0.402,0.666,0.733c0,0.61-0.945,0.916-2.837,0.916
			h-0.115l-7.729-0.34c-0.425-0.122-0.637-0.401-0.637-0.838c4.381-9.199,6.571-14.305,6.571-15.317
			c0.714-1.901,1.225-4.398,1.534-7.487l-1.101,0.078h-1.157l-0.377,0.078l-0.376-0.078h-0.435
			c-3.049-0.244-4.573-0.689-4.573-1.335C296.285,393.37,296.652,393.091,297.173,393.091z"/>
		<path d="M309.331,395.787c0.405,0,0.771,0.523,1.1,1.571h0.174c0.656-0.454,1.572-0.725,2.75-0.812
			c3.416,0,5.703,2.793,6.86,8.378l0.435,4.373c0,4.992-1.969,8.238-5.905,9.739l-1.505,0.157h-0.059
			c-0.425,0-1.062-0.131-1.91-0.393v0.235l0.087,0.498c0,0.244-0.271,0.488-0.811,0.732c-0.734,0-1.101-0.716-1.101-2.146
			c-0.502-6.127-0.752-9.888-0.752-11.285l0.289-7.697c0-0.785-0.213-1.649-0.637-2.592
			C308.347,396.145,308.675,395.891,309.331,395.787z M310.431,406.731l0.435,8.667c0.482,1.501,1.187,2.251,2.113,2.251h0.752
			c1.043,0,2.19-0.715,3.445-2.146c1.1-1.588,1.65-3.465,1.65-5.63v-1.387c0-3.491-0.792-6.433-2.374-8.824
			c-0.927-0.995-1.776-1.492-2.548-1.492h-1.1c-1.235,0-1.939,0.689-2.113,2.068L310.431,406.731z"/>
		<path d="M323.892,393.719c0.482,0,0.763,0.332,0.84,0.995h-0.087l0.087,0.262c0.656,0,2.479-0.184,5.472-0.55
			c0.481,0.157,0.724,0.428,0.724,0.812c0,0.559-1.303,0.917-3.908,1.073l-2.548,0.314v1.152c0,0.82,0.366,4.146,1.101,9.976h3.705
			c0.502,0,0.811,0.253,0.927,0.759c0,0.542-0.454,0.812-1.361,0.812h-3.271v0.105l-0.087,5.42c0,1.292,0.145,2.234,0.434,2.827
			l5.732-0.34c0.617,0.069,0.926,0.313,0.926,0.732c0,0.56-0.676,0.838-2.026,0.838c-3.474,0.175-5.21,0.341-5.21,0.498
			c-0.695,0-1.178-0.96-1.448-2.881l-0.145-1.989l0.059-5.943l-1.071-10.813v-0.812c0-2.164,0.356-3.247,1.071-3.247H323.892z"/>
		<path d="M340.913,396.075c0.386,0,0.666,0.297,0.84,0.891c0,3.089-0.28,4.634-0.84,4.634l-0.261,0.079
			c-0.598,0-0.897-0.55-0.897-1.649c-0.251-1.274-0.617-1.912-1.1-1.912c-1.679,1.24-2.519,3.719-2.519,7.437
			c0.405,5.795,0.936,9.233,1.592,10.315c0.792,1.257,1.67,1.886,2.635,1.886h0.376c1.39,0,2.519-1.239,3.388-3.719
			c0.25-0.209,0.481-0.313,0.694-0.313c0.482,0,0.762,0.271,0.84,0.812c-0.155,1.188-0.908,2.452-2.259,3.796
			c-1.139,0.663-2.094,0.995-2.865,0.995c-2.587,0-4.284-1.815-5.095-5.445c-0.656-3.578-0.984-6.293-0.984-8.144v-0.34
			c0-3.299,0.839-5.996,2.519-8.091c0.56-0.506,1.206-0.759,1.939-0.759l1.013,0.235
			C339.929,396.416,340.257,396.18,340.913,396.075z"/>
		<path d="M355.88,393.3c0.327,0.018,0.579,0.279,0.752,0.786c-1.062,1.57-2.286,4.425-3.676,8.562
			c-0.541,1.169-1.303,2.356-2.287,3.561c2.605,6.319,4.699,10.168,6.281,11.547c0.772,0.523,1.148,0.916,1.13,1.178
			c-0.155,0.488-0.454,0.725-0.897,0.707h-0.059c-0.791-0.175-2.074-1.51-3.85-4.006c-1.235-2.252-2.336-4.6-3.3-7.043l-0.174-0.026
			c-0.251,3.945-0.164,7.262,0.26,9.949c-0.231,0.472-0.55,0.689-0.955,0.654h-0.261c-0.752-0.035-1.013-3.979-0.781-11.834
			c-0.521-5.813-0.694-10.115-0.521-12.908c0.038-0.61,0.366-0.898,0.983-0.864c0.502,0.018,0.753,0.385,0.753,1.1
			c-0.174,2.706-0.058,6.074,0.348,10.106h0.058c0.714-0.61,1.641-2.461,2.779-5.551C353.814,395.237,354.953,393.265,355.88,393.3z
			"/>
		<path d="M370.094,394.268c0.289,0,0.56,0.245,0.811,0.733c-1.1,4.05-1.872,8.309-2.315,12.777
			c-0.444,4.468-1.071,8.352-1.882,11.65l-0.55,0.341c-0.676-0.192-1.014-0.445-1.014-0.76l1.708-10.289
			c-1.216-1.361-2.152-2.88-2.808-4.556c-0.83-2.06-2.374-4.73-4.632-8.012l-0.261-0.629c0-0.401,0.328-0.654,0.984-0.759
			c0.328,0.052,0.82,0.689,1.477,1.911l5.008,8.901l0.318,0.707C368.154,397.436,369.206,393.43,370.094,394.268z M366.359,388.901
			c0.617,0.14,0.927,0.41,0.927,0.812c0,0.175-1.148,1.196-3.445,3.063c-0.984,0.873-1.563,1.31-1.736,1.31
			c-0.618-0.14-0.927-0.437-0.927-0.891C364.111,390.333,365.838,388.901,366.359,388.901z"/>
		<path d="M387.028,394.452c0.289,0,0.568,0.253,0.839,0.759l-0.086,0.394c1.679,10.036,2.855,17.682,3.531,22.936
			c-0.193,0.488-0.492,0.733-0.897,0.733c-0.676,0-1.081-1.31-1.216-3.928l-0.318-2.068l-1.592,0.078
			c-1.004,0-2.519-0.113-4.545-0.34c-1.429,4.416-2.403,6.624-2.924,6.624h-0.059c-0.617-0.157-0.926-0.437-0.926-0.838
			c1.563-3.456,3.261-9.373,5.095-17.752c0.791-2.583,1.515-4.669,2.171-6.258C386.372,394.565,386.681,394.452,387.028,394.452z
			 M383.207,411.444c1.062,0.228,2.181,0.341,3.358,0.341h1.563c0.212,0,0.396-0.079,0.55-0.236l-2.112-12.725h-0.059
			c-0.386,0.542-0.945,2.444-1.679,5.708L383.207,411.444z"/>
		<path d="M398.954,393.667c1.737,0.14,2.779,1.57,3.126,4.294v1.1c-0.231,2.182-1.447,4.372-3.647,6.571
			c0.425,0.82,1.303,3.456,2.635,7.907l2.432,5.027c-0.251,0.471-0.579,0.681-0.984,0.628c-0.521-0.018-1.331-1.37-2.432-4.059
			c-0.753-1.344-1.583-3.822-2.489-7.436c-0.231-0.628-0.415-0.951-0.55-0.969l-1.939,0.917c0.038,3.822,0.212,7.427,0.521,10.813
			c-0.039,0.28-0.28,0.532-0.724,0.76l-0.289-0.026c-0.541-0.035-0.811-0.576-0.811-1.623c-0.521-9.548-0.589-16.242-0.203-20.082
			c-0.386-0.314-0.56-0.629-0.521-0.942c0.019-0.122,0.231-0.357,0.637-0.707c0.058-0.716,0.395-1.038,1.013-0.969l0.435,0.184
			C396.783,394.042,398.047,393.579,398.954,393.667z M395.336,396.887c-0.213,3.823-0.28,6.799-0.203,8.929l0.261,0.026
			c1.891-0.803,3.464-2.688,4.719-5.656l0.202-1.125l0.029-0.236c0.174-1.588-0.223-2.783-1.187-3.587l-0.464-0.026
			C398.037,395.159,396.918,395.718,395.336,396.887z"/>
		<path d="M406.48,393.719c0.482,0,0.763,0.332,0.84,0.995h-0.087l0.087,0.262c0.656,0,2.479-0.184,5.472-0.55
			c0.481,0.157,0.724,0.428,0.724,0.812c0,0.559-1.303,0.917-3.908,1.073l-2.548,0.314v1.152c0,0.82,0.366,4.146,1.101,9.976h3.705
			c0.502,0,0.811,0.253,0.927,0.759c0,0.542-0.454,0.812-1.361,0.812h-3.271v0.105l-0.087,5.42c0,1.292,0.145,2.234,0.434,2.827
			l5.732-0.34c0.617,0.069,0.926,0.313,0.926,0.732c0,0.56-0.676,0.838-2.026,0.838c-3.474,0.175-5.21,0.341-5.21,0.498
			c-0.695,0-1.178-0.96-1.448-2.881l-0.145-1.989l0.059-5.943l-1.071-10.813v-0.812c0-2.164,0.356-3.247,1.071-3.247H406.48z"/>
		<path d="M425.152,394.452c0.289,0,0.568,0.253,0.839,0.759l-0.086,0.394c1.679,10.036,2.855,17.682,3.531,22.936
			c-0.193,0.488-0.492,0.733-0.897,0.733c-0.676,0-1.081-1.31-1.216-3.928l-0.318-2.068l-1.592,0.078
			c-1.004,0-2.519-0.113-4.545-0.34c-1.429,4.416-2.403,6.624-2.924,6.624h-0.059c-0.617-0.157-0.926-0.437-0.926-0.838
			c1.563-3.456,3.261-9.373,5.095-17.752c0.791-2.583,1.515-4.669,2.171-6.258C424.496,394.565,424.805,394.452,425.152,394.452z
			 M426.542,389.163c0.598,0.14,0.897,0.401,0.897,0.785c0,0.192-1.158,1.214-3.475,3.063c-0.983,0.891-1.554,1.336-1.707,1.336
			c-0.618-0.14-0.927-0.437-0.927-0.891C424.265,390.595,426.001,389.163,426.542,389.163z M421.331,411.444
			c1.062,0.228,2.181,0.341,3.358,0.341h1.563c0.212,0,0.396-0.079,0.55-0.236l-2.112-12.725h-0.059
			c-0.386,0.542-0.945,2.444-1.679,5.708L421.331,411.444z"/>
		<path d="M431.84,394.111c0.598,0,0.897,0.821,0.897,2.462c0.481,13.649,0.945,20.475,1.389,20.475l0.811-0.184l3.271,0.078
			l1.101-0.235c0.289,0,0.568,0.253,0.839,0.76c-0.193,0.698-0.984,1.047-2.374,1.047l-3.039-0.053c-0.231,0-0.656,0.184-1.273,0.55
			h-0.435c-0.599,0-0.994-2.033-1.187-6.1c-0.231-2.602-0.541-8.684-0.927-18.25C431.067,394.295,431.376,394.111,431.84,394.111z"
			/>
	</g>
	<g>
		<path d="M333.014,358.878c0,6.143,1.255,10.833,3.766,14.069c0.198,0.33,0.297,0.693,0.297,1.09
			c-0.133,0.396-0.331,0.693-0.595,0.892c-2.18,1.387-4.141,2.081-5.881,2.081c-0.805,0-1.744-0.529-2.815-1.585
			c-0.336-0.728-0.571-1.437-0.705-2.13s-0.269-1.404-0.402-2.13c-0.201-1.188-0.302-2.393-0.302-3.616c0-1.221,0-2.427,0-3.616
			c0-0.131-0.017-0.213-0.05-0.248c-0.033-0.033-0.049-0.082-0.049-0.148v-17.833c-2.378-0.198-6.936-0.297-13.673-0.297h-7.926
			c-0.463,0-0.908,0.034-1.338,0.099c-0.43,0.066-0.742,0.099-0.94,0.099h-0.595h-0.198c-0.728,0.066-1.238,0.099-1.535,0.099
			c-0.298,0-0.545,0.066-0.743,0.198c0.064,0,0.164,0.066,0.297,0.198c-0.198,0.133-0.297,0.364-0.297,0.694
			c0,0.594-0.05,1.189-0.149,1.783c-0.099,0.594-0.183,1.189-0.247,1.783c-0.134,0.661-0.166,1.223-0.1,1.685h-0.099
			c-0.133,2.246-0.248,4.161-0.347,5.746c-0.1,1.585-0.148,2.841-0.148,3.765c0,2.313,0.114,4.475,0.347,6.489
			c0.23,2.016,0.545,3.879,0.941,5.598c0.064,0.33,0,0.726-0.198,1.189c-0.332,0.33-0.661,0.528-0.991,0.594h-1.486
			c-1.651,0-2.841-0.282-3.566-0.842c-0.728-0.562-1.223-1.14-1.486-1.734v-0.099c0-0.066-0.017-0.166-0.049-0.297
			c-0.034-0.133-0.084-0.396-0.149-0.792c-0.066-0.396-0.148-1.006-0.247-1.833c-0.1-0.825-0.248-1.997-0.446-3.517
			c-0.133-1.056-0.232-2.146-0.297-3.27c-0.066-1.122-0.1-2.311-0.1-3.566c0-1.189,0.033-2.443,0.1-3.765
			c0.064-1.32,0.164-2.74,0.297-4.26c0.065-0.659,0.114-1.402,0.148-2.229c0.033-0.825,0.05-1.402,0.05-1.734
			c-0.793,0.133-1.568,0.332-2.328,0.594c-0.759,0.265-1.502,0.396-2.229,0.396h-0.099c-0.991-0.065-1.849-0.362-2.576-0.892
			c-0.263-0.198-0.495-0.496-0.693-0.892c-0.198-0.396-0.297-0.924-0.297-1.585c0-1.189,0.265-2.031,0.792-2.526
			c0.529-0.495,1.025-0.808,1.486-0.941c0.066,0,0.166-0.033,0.297-0.099c0.134-0.065,0.431-0.149,0.892-0.248
			c0.463-0.099,1.09-0.23,1.883-0.396c0.793-0.164,1.85-0.379,3.17-0.644c0.858-7.661,1.502-14.167,1.933-19.518
			c0.429-5.35,0.644-9.576,0.644-12.682c0-3.369-0.198-5.846-0.595-7.431c-0.133-0.461-0.033-0.857,0.298-1.189
			c0.132-0.33,0.461-0.495,0.99-0.495h0.198c3.235,0.265,5.449,1.057,6.639,2.377c1.254,1.255,1.882,3.567,1.882,6.936
			c0,0.926-0.148,2.659-0.445,5.201c-0.298,2.543-0.711,5.961-1.239,10.254c-0.462,3.566-0.81,6.638-1.04,9.214
			c-0.232,2.576-0.413,4.624-0.545,6.143c0.528,0.066,1.155,0.099,1.883,0.099c0.726,0,1.551,0,2.477,0c0.925,0,1.915,0,2.973,0
			c1.056,0,2.212-0.033,3.468-0.099c4.161-0.131,7.529-0.23,10.105-0.297c2.576-0.065,4.424-0.099,5.548-0.099
			c0.201-1.849,0.401-4.458,0.603-7.827c0.736-9.048,1.291-16.05,1.659-21.004s0.553-7.859,0.553-8.719v-0.198
			c0-0.065-0.068-0.362-0.201-0.892c-0.135-0.396-0.201-0.743-0.201-1.041s0-0.578,0-0.842c0-0.263,0.05-0.627,0.15-1.09
			c0.101-0.461,0.302-0.907,0.604-1.337c0.3-0.429,0.77-0.792,1.405-1.09c0.637-0.297,1.523-0.446,2.661-0.446
			c1.849,0,3.533,0.595,5.053,1.783c1.585,1.189,2.378,2.643,2.378,4.359c0,0.265-0.05,0.661-0.148,1.189
			c-0.1,0.529-0.381,1.354-0.842,2.477c-0.396,0.926-0.729,1.8-0.991,2.625c-0.265,0.827-0.463,1.602-0.595,2.328
			c-0.463,2.313-0.926,4.988-1.387,8.025c-0.463,3.039-0.958,6.474-1.486,10.304c-0.396,2.973-0.71,5.318-0.941,7.035
			c-0.231,1.718-0.413,3.006-0.545,3.864c0,0.066-0.017,0.116-0.049,0.148c-0.034,0.034-0.05,0.084-0.05,0.149
			c0.065,0.594,0.082,1.173,0.05,1.734c-0.034,0.562-0.084,1.139-0.149,1.733c-0.066,0.265-0.099,0.513-0.099,0.743
			c0,0.232-0.034,0.446-0.099,0.644c-0.198,0.594-0.298,1.189-0.298,1.783v0.198c0,1.52-0.099,3.567-0.297,6.143
			C333.113,354.751,333.014,357.228,333.014,358.878z"/>
		<path d="M362.537,336.091c0.858,0,1.254,0.248,1.189,0.743c-0.066,0.495-0.1,1.139-0.1,1.932c0,0.133-0.017,0.347-0.049,0.644
			c-0.034,0.297-0.116,0.711-0.248,1.239c-0.133,0.529-0.297,1.255-0.495,2.18c-0.198,0.925-0.496,2.081-0.892,3.467
			c-1.256,5.087-2.61,9.578-4.063,13.474c-0.728,1.917-1.437,3.551-2.13,4.904c-0.693,1.354-1.372,2.494-2.031,3.418
			c-1.783,2.511-4.029,3.765-6.737,3.765c-3.038,0-5.646-1.585-7.826-4.756c-1.981-2.972-2.973-6.571-2.973-10.799
			c0-3.434,0.248-6.901,0.743-10.403c0.495-3.5,1.14-6.638,1.932-9.412c0.264-0.991,0.577-2.014,0.941-3.071
			c0.362-1.056,0.808-2.031,1.338-2.923c0.527-0.892,1.122-1.618,1.783-2.18c0.659-0.561,1.452-0.842,2.378-0.842
			c1.848,0,3.566,0.694,5.151,2.081c0.727,0.728,1.32,1.619,1.783,2.675c0.462,1.057,0.693,1.981,0.693,2.774
			c0,1.322-0.131,2.774-0.393,4.359c-0.262,1.585-0.589,3.155-0.981,4.706c-0.394,1.553-0.835,2.972-1.325,4.26
			c-0.491,1.288-0.999,2.328-1.521,3.121c-0.328,0.595-0.787,1.189-1.375,1.784c-0.588,0.594-1.193,1.074-1.815,1.437
			c-0.623,0.364-1.211,0.562-1.767,0.594c-0.558,0.034-1.031-0.213-1.423-0.743c-0.133,0.53-0.166,1.223-0.099,2.081
			c0.064,0.859,0.164,1.702,0.297,2.526c0.132,0.827,0.297,1.603,0.495,2.329c0.198,0.728,0.362,1.255,0.495,1.585
			c0.515,1.124,1.191,1.966,2.027,2.526c0.836,0.562,1.416,0.842,1.738,0.842c0.659,0,1.303-0.496,1.932-1.486
			c0.627-0.991,1.437-2.245,2.428-3.765c1.122-1.783,2.377-4.293,3.765-7.53c1.387-3.235,2.641-6.703,3.765-10.403
			c0.198-0.726,0.379-1.437,0.545-2.13c0.164-0.694,0.347-1.403,0.545-2.13C360.589,337.049,361.349,336.091,362.537,336.091z
			 M346.982,334.01c-0.517,1.454-0.984,2.759-1.402,3.914c-0.419,1.156-0.822,2.279-1.209,3.368
			c-0.387,1.09-0.711,2.197-0.968,3.319c-0.258,1.124-0.419,2.378-0.482,3.765c0.841-0.065,1.568-0.659,2.183-1.783
			c0.613-1.123,1.017-2.146,1.212-3.071c0.259-1.32,0.534-2.658,0.825-4.013c0.291-1.353,0.437-2.757,0.437-4.21
			c0-0.33-0.05-0.743-0.148-1.239C347.329,333.564,347.181,333.549,346.982,334.01z"/>
		<path d="M390.178,336.091c0.33,0.066,0.479,0.248,0.445,0.545s-0.049,1.139-0.049,2.526c0,1.322-0.265,3.336-0.793,6.043
			c-0.529,2.709-1.453,6.177-2.774,10.403c-0.728,2.313-1.52,4.359-2.377,6.143c-0.859,1.784-1.62,3.27-2.279,4.458
			c-0.529,0.926-1.173,1.85-1.932,2.774c-0.761,0.926-1.701,1.387-2.824,1.387c-2.114,0-3.765-0.857-4.953-2.576
			c-0.198-0.33-0.413-0.677-0.645-1.041c-0.231-0.362-0.479-0.808-0.743-1.337c-1.718,4.755-4.128,7.133-7.232,7.133
			c-1.52,0-2.907-0.562-4.161-1.684c-2.377-2.443-3.467-7.563-3.27-15.357c0.065-1.254,0.231-2.725,0.496-4.409
			c0.263-1.684,0.594-3.483,0.99-5.399c0.264-1.056,0.578-2.212,0.941-3.468c0.362-1.254,0.759-2.509,1.188-3.765
			c0.43-1.254,0.843-2.411,1.239-3.468c0.396-1.056,0.758-1.915,1.09-2.576c0.461-0.857,1.04-1.733,1.733-2.625
			c0.693-0.892,1.536-1.338,2.526-1.338c0.727,0,1.519,0.183,2.378,0.545c0.857,0.364,1.667,0.859,2.428,1.486
			c0.758,0.628,1.419,1.372,1.981,2.229c0.56,0.859,0.906,1.751,1.04,2.675c0.329,2.114,0.362,3.601,0.099,4.458
			c-0.265,0.859-0.529,1.486-0.792,1.883c-0.134,0.133-0.314,0.297-0.545,0.495c-0.232,0.198-0.496,0.347-0.793,0.446
			s-0.562,0.099-0.793,0s-0.381-0.379-0.445-0.842c-0.198-1.585-0.529-2.955-0.991-4.111c-0.463-1.155-1.123-1.799-1.981-1.932
			c-0.198,0.332-0.529,1.124-0.99,2.378c-0.463,1.255-1.124,3.403-1.981,6.44c-0.859,3.039-1.553,5.879-2.081,8.521
			c-0.396,3.17-0.594,6.439-0.594,9.808c0,1.058,0.23,2.048,0.693,2.972c0.131,0.265,0.362,0.48,0.693,0.644
			c0.329,0.166,0.561,0.248,0.693,0.248c0.263,0,0.693-0.561,1.288-1.685c0.595-1.122,1.254-2.74,1.981-4.854
			c0.726-1.915,1.188-3.698,1.387-5.35c0.198-1.65,0.462-3.334,0.793-5.053c0.132-0.528,0.23-1.023,0.297-1.486
			c0.065-0.461,0.132-0.957,0.198-1.486c0.065-0.528,0.05-0.892-0.05-1.09c-0.099-0.198-0.049-0.429,0.149-0.694
			c0.198-0.263,0.411-0.396,0.644-0.396c0.23,0,0.412,0,0.545,0c0.132,0,0.297,0.017,0.495,0.049c0.198,0.034,0.362,0.05,0.496,0.05
			c0.263,0,0.495,0.083,0.693,0.248c0.198,0.166,0.429,0.282,0.693,0.347c0.263,0.066,0.479,0.148,0.644,0.248
			c0.164,0.099,0.347,0.215,0.545,0.347c0.264,0.067,0.528,0.166,0.793,0.297c0.198,0.133,0.379,0.297,0.545,0.496
			c0.164,0.198,0.181,0.43,0.05,0.693c-0.198,0.594-0.381,1.223-0.545,1.882c-0.166,0.661-0.314,1.322-0.446,1.981
			c-0.133,0.926-0.247,1.917-0.347,2.973c-0.099,1.057-0.215,2.081-0.347,3.071c-0.133,1.783,0.065,3.566,0.595,5.35
			c0.263,0.728,0.479,1.206,0.644,1.437c0.164,0.232,0.28,0.38,0.347,0.446c0.065,0,0.164-0.082,0.298-0.248
			c0.131-0.164,0.329-0.461,0.594-0.892c0.264-0.429,0.61-1.056,1.041-1.882c0.429-0.825,0.974-1.898,1.635-3.22
			c1.32-2.708,2.294-5.167,2.922-7.381c0.627-2.212,1.14-3.914,1.536-5.102l2.477-6.936c0.132-0.528,0.38-1.172,0.743-1.932
			C388.509,336.273,389.187,335.959,390.178,336.091z"/>
		<path d="M412.568,336.388c0.263,0,0.709,0.148,1.337,0.446c0.627,0.297,0.941,1.139,0.941,2.526c0,2.313-1.387,7.827-4.161,16.545
			c-1.124,3.304-2.114,5.944-2.973,7.926c-0.858,1.982-1.635,3.502-2.328,4.558c-0.693,1.057-1.321,1.751-1.882,2.081
			c-0.563,0.332-1.074,0.496-1.536,0.496c-2.709,0-4.921-1.519-6.638-4.558c-0.265-0.33-0.513-0.991-0.743-1.981
			c-0.232-0.991-0.413-2.708-0.545-5.152v-7.629v-8.521c0-0.131-0.133-0.446-0.396-0.941c-0.265-0.496-0.99-1.14-2.18-1.932
			c-0.396,2.115-1.188,5.218-2.378,9.313c0,0.198-0.198,0.693-0.594,1.486c-0.134,0.265-0.232,0.463-0.298,0.594
			c-0.066,0.133-0.133,0.232-0.198,0.297c0,0.265-0.165,0.495-0.495,0.693c-0.331,0.332-0.728,0.396-1.188,0.198l-1.486-0.396
			c-0.727-0.263-1.09-0.726-1.09-1.387c0-0.065,0-0.181,0-0.347c0-0.164,0.05-0.461,0.148-0.892c0.1-0.429,0.248-1.04,0.446-1.833
			c0.198-0.793,0.495-1.883,0.892-3.27c0.857-3.235,1.288-5.846,1.288-7.827c0-0.131-0.034-0.446-0.1-0.941
			c-0.066-0.496-0.265-1.205-0.595-2.13c-0.66-1.585-0.99-3.005-0.99-4.26c0-1.387,0.132-2.509,0.396-3.369
			c0.263-0.857,0.594-1.536,0.99-2.031c0.396-0.496,0.843-0.842,1.338-1.041c0.495-0.198,0.974-0.297,1.437-0.297
			c0.263,0,0.595,0.049,0.99,0.148c0.396,0.099,0.776,0.314,1.14,0.644c0.362,0.331,0.693,0.81,0.991,1.437
			c0.297,0.628,0.478,1.437,0.545,2.427c0.064,0.661,0,1.817-0.198,3.468c-0.134,0.926-0.198,1.619-0.198,2.081
			c0,0.463,0,0.827,0,1.09c0.064,0.133,0.329,0.364,0.792,0.693c0.462,0.332,1.42,0.859,2.874,1.585
			c3.566,1.718,5.35,3.93,5.35,6.638c0,0.133-0.017,0.381-0.05,0.743c-0.034,0.364-0.066,0.909-0.099,1.635
			c-0.034,0.728-0.116,1.718-0.248,2.972c-0.133,1.255-0.297,2.873-0.495,4.855c-0.133,1.387-0.248,2.543-0.347,3.467
			c-0.1,0.926-0.183,1.685-0.248,2.279c-0.066,0.594-0.116,1.09-0.148,1.486c-0.034,0.396-0.05,0.792-0.05,1.188
			c0,1.585,0.164,2.576,0.496,2.973c0.329,0.396,0.659,0.594,0.99,0.594c0.065-0.065,0.214-0.248,0.446-0.545
			c0.23-0.297,0.527-0.825,0.892-1.585c0.362-0.759,0.792-1.784,1.288-3.071c0.495-1.288,1.104-2.956,1.832-5.003
			c2.245-6.473,3.632-11.458,4.161-14.96c0.198-1.519,0.595-2.509,1.189-2.972C411.479,336.62,412.038,336.388,412.568,336.388z"/>
		<path d="M431.687,316.077c0.925,0.133,1.388,0.628,1.388,1.486v0.693c0,0.332-0.1,0.628-0.298,0.892
			c-0.197,0.265-0.628,0.529-1.287,0.792c-0.661,0.265-2.147,0.595-4.459,0.991c-1.52,0.331-2.773,0.529-3.765,0.594
			c-0.991,0.066-1.85,0.099-2.576,0.099l-3.071,0.198c-0.133,0.926-0.281,2.395-0.445,4.409c-0.166,2.016-0.414,4.508-0.743,7.48
			c-0.265,2.511-0.463,4.558-0.595,6.143c-0.133,1.585-0.248,2.841-0.347,3.765c-0.1,0.926-0.166,1.585-0.198,1.981
			c-0.034,0.396-0.05,0.661-0.05,0.792c0,3.17,0.016,5.731,0.05,7.678c0.032,1.949,0.082,3.287,0.148,4.013
			c0.198,2.115,0.479,3.501,0.843,4.161c0.362,0.661,0.609,0.991,0.742,0.991c0.264-0.132,0.528-0.362,0.793-0.693
			c0.264-0.33,0.577-0.793,0.941-1.387c0.362-0.594,0.808-1.452,1.337-2.576c0.727-1.783,1.502-4.045,2.329-6.787
			c0.825-2.74,1.667-5.927,2.526-9.561c0.198-0.857,0.396-1.585,0.594-2.18c0.198-0.594,0.362-1.122,0.496-1.585
			c0.131-0.33,0.347-0.759,0.644-1.288c0.297-0.528,0.775-0.792,1.437-0.792c0.595,0,1.155,0.215,1.685,0.644
			c0.527,0.43,0.792,1.206,0.792,2.328c0,1.255-0.297,3.155-0.892,5.697c-0.594,2.543-1.553,5.796-2.873,9.759
			c-1.718,5.087-3.386,8.834-5.003,11.245c-1.619,2.412-3.319,3.616-5.103,3.616c-2.511,0-4.524-1.915-6.043-5.747
			c-1.322-3.434-1.982-7.694-1.982-12.78c0-1.65,0.214-4.821,0.645-9.511c0.429-4.689,1.105-11.228,2.031-19.617
			c-0.595,0.133-1.156,0.116-1.685-0.049c-0.529-0.164-0.892-0.313-1.09-0.446c-0.132-0.065-0.297-0.198-0.495-0.396
			c-0.198-0.198-0.561-0.396-1.09-0.594c-0.925-0.33-1.502-0.743-1.734-1.238c-0.23-0.496-0.347-0.907-0.347-1.239
			c0-0.198,0.116-0.545,0.347-1.04c0.232-0.496,1.008-0.875,2.328-1.14c0.396-0.065,0.729-0.114,0.991-0.148
			c0.263-0.033,0.528-0.065,0.793-0.099c0.263-0.032,0.577-0.065,0.94-0.099c0.362-0.032,0.843-0.082,1.437-0.148
			c0.065-0.726,0.132-1.618,0.198-2.675c0.065-1.056,0.132-2.278,0.198-3.666l-0.495-1.684c0-0.396,0.032-0.694,0.099-0.892
			c0.528-1.056,1.354-1.585,2.478-1.585c1.188,0,2.873,0.693,5.053,2.081c0.396,0.331,0.595,0.728,0.595,1.189v2.279v0.297
			c-0.134,0.728-0.282,1.471-0.446,2.229c-0.166,0.76-0.347,1.602-0.545,2.526c0.461,0,0.743,0,0.842,0
			c0.1,0,0.182,0.017,0.248,0.049c0.065,0.034,0.23,0.067,0.495,0.099c0.264,0.034,0.858,0.05,1.783,0.05
			c0.858,0,1.536,0.017,2.031,0.049c0.495,0.034,1.023,0.066,1.585,0.099c0.561,0.034,1.271,0.066,2.131,0.099
			C428.879,315.963,430.102,316.013,431.687,316.077z"/>
		<path d="M433.37,336.091c0,1.322,0.214,2.972,0.645,4.954c0.429,1.981,1.072,4.359,1.932,7.133
			c0.924,2.907,1.585,5.367,1.981,7.381c0.396,2.016,0.595,3.65,0.595,4.904c0,3.435-0.728,6.209-2.18,8.322
			c-1.652,2.444-3.666,3.666-6.044,3.666c-2.511,0-4.756-1.09-6.737-3.27c-1.387-1.452-2.08-2.906-2.08-4.359
			c0-2.046,0.661-3.235,1.981-3.566c0.066,0,0.116-0.016,0.148-0.05c0.034-0.032,0.084-0.049,0.148-0.049
			c0.331,0,0.759,0.148,1.288,0.446c0.528,0.297,0.825,1.107,0.892,2.427c0.925,1.917,1.783,2.873,2.576,2.873
			c0.33,0,0.709-0.082,1.14-0.248c0.429-0.164,0.842-0.61,1.238-1.337c0.726-1.32,1.09-3.071,1.09-5.251
			c0-2.576-0.661-6.143-1.981-10.7v-0.099c-0.134-0.33-0.248-0.709-0.347-1.139c-0.1-0.429-0.216-0.842-0.347-1.238
			c-0.266,0.792-0.496,1.602-0.694,2.427c-0.198,0.827-0.43,1.635-0.693,2.427v0.099c-0.133,0.265-0.297,0.661-0.495,1.189
			c-0.198,0.529-0.463,1.04-0.793,1.536c-0.331,0.495-0.728,0.926-1.188,1.288c-0.463,0.364-1.025,0.545-1.685,0.545
			c-0.527,0-1.023-0.132-1.486-0.396c-0.726-0.33-0.956-0.857-0.693-1.585c0.463-1.848,0.926-3.698,1.388-5.548
			c0.463-1.849,0.926-3.666,1.387-5.449c0.527-1.783,0.892-3.681,1.09-5.697c0.198-2.014,0.297-4.144,0.297-6.39
			c0-1.321,0.362-2.361,1.09-3.121c0.727-0.758,1.749-1.139,3.071-1.139c0.991,0,1.799,0.133,2.428,0.396
			c0.627,0.265,1.09,0.579,1.387,0.941c0.298,0.364,0.495,0.728,0.595,1.09c0.099,0.364,0.148,0.678,0.148,0.941
			c0,0.133-0.034,0.364-0.099,0.694c-0.067,0.331-0.232,0.991-0.496,1.981C433.534,334.44,433.37,335.431,433.37,336.091z"/>
	</g>
</g>
</svg>
