<?xml version="1.0" encoding="utf-8"?>
<!-- Generator: Adobe Illustrator 19.0.0, SVG Export Plug-In . SVG Version: 6.00 Build 0)  -->
<svg version="1.1" id="Layer_1" xmlns="http://www.w3.org/2000/svg" xmlns:xlink="http://www.w3.org/1999/xlink" x="0px" y="0px"
	 viewBox="0 0 161.1 153.4" style="enable-background:new 0 0 161.1 153.4;" xml:space="preserve">
<style type="text/css">
	.st0{fill:#FFFFFF;}
</style>
<g id="XMLID_6_">
	<path id="XMLID_30_" class="st0" d="M78.7,8.2c-38.3,0-69.3,31-69.3,69.3s31,69.3,69.3,69.3c38.3,0,69.3-31,69.3-69.3
		S117,8.2,78.7,8.2z M77.9,39c9,0,16.3,7.3,16.3,16.3c0,9-7.3,16.3-16.3,16.3c-9,0-16.3-7.3-16.3-16.3C61.6,46.3,68.9,39,77.9,39z
		 M90.4,115.9H67.1c-3.5,0-18.5-5-18.5-11c0,0,5.7-26.8,18.5-26.8h23.2c13.1,0,18.5,26.8,18.5,26.8C108.9,111,93.9,115.9,90.4,115.9
		z"/>
</g>
</svg>
