<?xml version="1.0" encoding="utf-8"?>
<!-- Generator: Adobe Illustrator 19.0.0, SVG Export Plug-In . SVG Version: 6.00 Build 0)  -->
<svg version="1.1" id="Layer_1" xmlns="http://www.w3.org/2000/svg" xmlns:xlink="http://www.w3.org/1999/xlink" x="0px" y="0px"
	 viewBox="0 0 161.1 153.4" style="enable-background:new 0 0 161.1 153.4;" xml:space="preserve">
<style type="text/css">
	.st0{fill:#FFFFFF;}
</style>
<g id="XMLID_1_">
	<path id="XMLID_34_" class="st0" d="M80,9C41.7,9,10.6,40,10.6,78.3s31,69.3,69.3,69.3s69.3-31,69.3-69.3S118.2,9,80,9z
		 M117.4,56.6c-0.4,32.5-26.6,58.7-59.1,59.1c-0.3,0-0.5,0-0.8,0s-0.5,0-0.8,0c-7.9-0.4-14.2-6.9-14.2-15c0-0.8,0.1-1.7,0.2-2.5
		c0.2-1.2,0.5-2.3,1-3.4l25.1-4c1.8,2,5,5.9,5.5,8.6c6.4-2.2,12.2-5.9,16.9-10.6c0.3-0.3,0.5-0.5,0.8-0.8c4.4-4.6,7.8-10.1,10-16.3
		c-2.6-0.4-6.9-2.8-8.9-4.4l4.1-25.7c0.9-0.3,1.9-0.6,2.8-0.8c0.8-0.1,1.6-0.2,2.5-0.2c8,0,14.6,6.3,15,14.2c0,0.3,0,0.5,0,0.8
		C117.4,56.1,117.4,56.4,117.4,56.6z"/>
</g>
</svg>
